<svg viewBox="0 0 330 200" xmlns="http://www.w3.org/2000/svg"><g><g><g><g><g><line x1="70" y1="177" x2="65" y2="177" style="visibility: inherit;" fill="rgb(0, 0, 0)" stroke="rgb(204, 204, 204)" stroke-width="1px"></line><line x1="70" y1="160.9090909090909" x2="65" y2="160.9090909090909" style="visibility: inherit;" fill="rgb(0, 0, 0)" stroke="rgb(204, 204, 204)" stroke-width="1px"></line><line x1="70" y1="144.8181818181818" x2="65" y2="144.8181818181818" style="visibility: inherit;" fill="rgb(0, 0, 0)" stroke="rgb(204, 204, 204)" stroke-width="1px"></line><line x1="70" y1="128.72727272727272" x2="65" y2="128.72727272727272" style="visibility: inherit;" fill="rgb(0, 0, 0)" stroke="rgb(204, 204, 204)" stroke-width="1px"></line><line x1="70" y1="112.63636363636364" x2="65" y2="112.63636363636364" style="visibility: inherit;" fill="rgb(0, 0, 0)" stroke="rgb(204, 204, 204)" stroke-width="1px"></line><line x1="70" y1="96.54545454545453" x2="65" y2="96.54545454545453" style="visibility: inherit;" fill="rgb(0, 0, 0)" stroke="rgb(204, 204, 204)" stroke-width="1px"></line><line x1="70" y1="80.45454545454547" x2="65" y2="80.45454545454547" style="visibility: inherit;" fill="rgb(0, 0, 0)" stroke="rgb(204, 204, 204)" stroke-width="1px"></line><line x1="70" y1="64.36363636363636" x2="65" y2="64.36363636363636" style="visibility: inherit;" fill="rgb(0, 0, 0)" stroke="rgb(204, 204, 204)" stroke-width="1px"></line><line x1="70" y1="48.272727272727266" x2="65" y2="48.272727272727266" style="visibility: inherit;" fill="rgb(0, 0, 0)" stroke="rgb(204, 204, 204)" stroke-width="1px"></line><line x1="70" y1="32.181818181818194" x2="65" y2="32.181818181818194" style="visibility: inherit;" fill="rgb(0, 0, 0)" stroke="rgb(204, 204, 204)" stroke-width="1px"></line><line x1="70" y1="16.090909090909097" x2="65" y2="16.090909090909097" style="visibility: inherit;" fill="rgb(0, 0, 0)" stroke="rgb(204, 204, 204)" stroke-width="1px"></line><line x1="70" y1="0" x2="65" y2="0" style="visibility: inherit;" fill="rgb(0, 0, 0)" stroke="rgb(204, 204, 204)" stroke-width="1px"></line></g><g transform="translate(60, 0)"><text x="0" y="177" dx="0em" dy="0.3em" style="text-anchor: end; visibility: hidden; font-family: Roboto, sans-serif; font-size: 12px; font-weight: 200;" fill="rgb(33, 33, 33)" stroke="none" stroke-width="1px">0</text><text x="0" y="160.9090909090909" dx="0em" dy="0.3em" style="text-anchor: end; visibility: inherit; font-family: Roboto, sans-serif; font-size: 12px; font-weight: 200;" fill="rgb(33, 33, 33)" stroke="none" stroke-width="1px">1e-4</text><text x="0" y="144.8181818181818" dx="0em" dy="0.3em" style="text-anchor: end; visibility: hidden; font-family: Roboto, sans-serif; font-size: 12px; font-weight: 200;" fill="rgb(33, 33, 33)" stroke="none" stroke-width="1px">2e-4</text><text x="0" y="128.72727272727272" dx="0em" dy="0.3em" style="text-anchor: end; visibility: inherit; font-family: Roboto, sans-serif; font-size: 12px; font-weight: 200;" fill="rgb(33, 33, 33)" stroke="none" stroke-width="1px">3e-4</text><text x="0" y="112.63636363636364" dx="0em" dy="0.3em" style="text-anchor: end; visibility: hidden; font-family: Roboto, sans-serif; font-size: 12px; font-weight: 200;" fill="rgb(33, 33, 33)" stroke="none" stroke-width="1px">4e-4</text><text x="0" y="96.54545454545453" dx="0em" dy="0.3em" style="text-anchor: end; visibility: inherit; font-family: Roboto, sans-serif; font-size: 12px; font-weight: 200;" fill="rgb(33, 33, 33)" stroke="none" stroke-width="1px">5e-4</text><text x="0" y="80.45454545454547" dx="0em" dy="0.3em" style="text-anchor: end; visibility: hidden; font-family: Roboto, sans-serif; font-size: 12px; font-weight: 200;" fill="rgb(33, 33, 33)" stroke="none" stroke-width="1px">6e-4</text><text x="0" y="64.36363636363636" dx="0em" dy="0.3em" style="text-anchor: end; visibility: inherit; font-family: Roboto, sans-serif; font-size: 12px; font-weight: 200;" fill="rgb(33, 33, 33)" stroke="none" stroke-width="1px">7e-4</text><text x="0" y="48.272727272727266" dx="0em" dy="0.3em" style="text-anchor: end; visibility: hidden; font-family: Roboto, sans-serif; font-size: 12px; font-weight: 200;" fill="rgb(33, 33, 33)" stroke="none" stroke-width="1px">8e-4</text><text x="0" y="32.181818181818194" dx="0em" dy="0.3em" style="text-anchor: end; visibility: inherit; font-family: Roboto, sans-serif; font-size: 12px; font-weight: 200;" fill="rgb(33, 33, 33)" stroke="none" stroke-width="1px">9e-4</text><text x="0" y="16.090909090909097" dx="0em" dy="0.3em" style="text-anchor: end; visibility: hidden; font-family: Roboto, sans-serif; font-size: 12px; font-weight: 200;" fill="rgb(33, 33, 33)" stroke="none" stroke-width="1px">1e-3</text><text x="0" y="0" dx="0em" dy="0.3em" style="text-anchor: end; visibility: hidden; font-family: Roboto, sans-serif; font-size: 12px; font-weight: 200;" fill="rgb(33, 33, 33)" stroke="none" stroke-width="1px">1.1e-3</text></g><line x1="70" y1="0" x2="70" y2="177" fill="rgb(0, 0, 0)" stroke="rgb(204, 204, 204)" stroke-width="1px"></line></g></g><g transform="translate(70, 0)" clip-path="url(#clip_0)"><clipPath id="clip_0"><rect width="260" height="177"></rect></clipPath><g><g><g><line x1="0" y1="0" x2="0" y2="177" fill="rgb(0, 0, 0)" stroke="rgb(66, 66, 66)" stroke-width="1px" opacity="0.25"></line><line x1="21.666666666666664" y1="0" x2="21.666666666666664" y2="177" fill="rgb(0, 0, 0)" stroke="rgb(66, 66, 66)" stroke-width="1px" opacity="0.25"></line><line x1="43.33333333333333" y1="0" x2="43.33333333333333" y2="177" fill="rgb(0, 0, 0)" stroke="rgb(66, 66, 66)" stroke-width="1px" opacity="0.25"></line><line x1="65" y1="0" x2="65" y2="177" fill="rgb(0, 0, 0)" stroke="rgb(66, 66, 66)" stroke-width="1px" opacity="0.25"></line><line x1="86.66666666666666" y1="0" x2="86.66666666666666" y2="177" fill="rgb(0, 0, 0)" stroke="rgb(66, 66, 66)" stroke-width="1px" opacity="0.25"></line><line x1="108.33333333333334" y1="0" x2="108.33333333333334" y2="177" fill="rgb(0, 0, 0)" stroke="rgb(66, 66, 66)" stroke-width="1px" opacity="0.25"></line><line x1="130" y1="0" x2="130" y2="177" fill="rgb(0, 0, 0)" stroke="rgb(66, 66, 66)" stroke-width="1px" opacity="0.25"></line><line x1="151.66666666666669" y1="0" x2="151.66666666666669" y2="177" fill="rgb(0, 0, 0)" stroke="rgb(66, 66, 66)" stroke-width="1px" opacity="0.25"></line><line x1="173.33333333333331" y1="0" x2="173.33333333333331" y2="177" fill="rgb(0, 0, 0)" stroke="rgb(66, 66, 66)" stroke-width="1px" opacity="0.25"></line><line x1="195" y1="0" x2="195" y2="177" fill="rgb(0, 0, 0)" stroke="rgb(66, 66, 66)" stroke-width="1px" opacity="0.25"></line><line x1="216.66666666666669" y1="0" x2="216.66666666666669" y2="177" fill="rgb(0, 0, 0)" stroke="rgb(66, 66, 66)" stroke-width="1px" opacity="0.25"></line><line x1="238.33333333333331" y1="0" x2="238.33333333333331" y2="177" fill="rgb(0, 0, 0)" stroke="rgb(66, 66, 66)" stroke-width="1px" opacity="0.25"></line><line x1="260" y1="0" x2="260" y2="177" fill="rgb(0, 0, 0)" stroke="rgb(66, 66, 66)" stroke-width="1px" opacity="0.25"></line></g><g><line x1="0" y1="177" x2="260" y2="177" fill="rgb(0, 0, 0)" stroke="rgb(66, 66, 66)" stroke-width="1px" opacity="0.25"></line><line x1="0" y1="160.9090909090909" x2="260" y2="160.9090909090909" fill="rgb(0, 0, 0)" stroke="rgb(66, 66, 66)" stroke-width="1px" opacity="0.25"></line><line x1="0" y1="144.8181818181818" x2="260" y2="144.8181818181818" fill="rgb(0, 0, 0)" stroke="rgb(66, 66, 66)" stroke-width="1px" opacity="0.25"></line><line x1="0" y1="128.72727272727272" x2="260" y2="128.72727272727272" fill="rgb(0, 0, 0)" stroke="rgb(66, 66, 66)" stroke-width="1px" opacity="0.25"></line><line x1="0" y1="112.63636363636364" x2="260" y2="112.63636363636364" fill="rgb(0, 0, 0)" stroke="rgb(66, 66, 66)" stroke-width="1px" opacity="0.25"></line><line x1="0" y1="96.54545454545453" x2="260" y2="96.54545454545453" fill="rgb(0, 0, 0)" stroke="rgb(66, 66, 66)" stroke-width="1px" opacity="0.25"></line><line x1="0" y1="80.45454545454547" x2="260" y2="80.45454545454547" fill="rgb(0, 0, 0)" stroke="rgb(66, 66, 66)" stroke-width="1px" opacity="0.25"></line><line x1="0" y1="64.36363636363636" x2="260" y2="64.36363636363636" fill="rgb(0, 0, 0)" stroke="rgb(66, 66, 66)" stroke-width="1px" opacity="0.25"></line><line x1="0" y1="48.272727272727266" x2="260" y2="48.272727272727266" fill="rgb(0, 0, 0)" stroke="rgb(66, 66, 66)" stroke-width="1px" opacity="0.25"></line><line x1="0" y1="32.181818181818194" x2="260" y2="32.181818181818194" fill="rgb(0, 0, 0)" stroke="rgb(66, 66, 66)" stroke-width="1px" opacity="0.25"></line><line x1="0" y1="16.090909090909097" x2="260" y2="16.090909090909097" fill="rgb(0, 0, 0)" stroke="rgb(66, 66, 66)" stroke-width="1px" opacity="0.25"></line><line x1="0" y1="0" x2="260" y2="0" fill="rgb(0, 0, 0)" stroke="rgb(66, 66, 66)" stroke-width="1px" opacity="0.25"></line></g></g></g><g><g><line x1="0" y1="177" x2="260" y2="177" fill="rgb(0, 0, 0)" stroke="rgb(153, 153, 153)" stroke-width="1.5px"></line></g></g><g><g><line x1="21.666666666666664" y1="0" x2="21.666666666666664" y2="177" fill="rgb(0, 0, 0)" stroke="rgb(153, 153, 153)" stroke-width="1.5px"></line></g></g><g><g><g><g><g><path stroke="rgb(255, 112, 67)" stroke-width="2px" d="M21.84,170.56363652623259L22.273333333333333,160.50681786674116L22.316666666666666,156.6072348822919L22.446666666666665,152.66841517410577L22.49,149.96146538634878L22.793333333333333,143.75265549753436L22.836666666666666,139.55593071873434L23.4,128.60415678896265L23.703333333333333,117.60069550645726L23.746666666666666,110.42246863686428L23.79,105.49743109869515L24.006666666666668,99.32866831531831L24.35333333333333,90.48018931924426L24.39666666666667,84.53436173303633L24.526666666666667,79.0380314794659L24.57,75.0980723418156L24.7,70.80357264168545L24.743333333333332,67.58363520209514L25.003333333333334,61.789829087875695L25.220000000000002,55.09546986991763L25.523333333333333,46.573457014449154L25.956666666666667,35.02392403560469L26.130000000000003,27.45071513600576L26.303333333333335,22.9070603549136L26.91,20.183219060861727L27.083333333333336,18.55001320780152L27.126666666666665,17.570391195820108L27.213333333333335,16.98326302126888L27.3,16.63167569558212L27.56,16.423083651334434L27.906666666666666,16.301734854831953L27.993333333333332,16.229997073939494L28.03666666666667,16.187508884679094L28.166666666666668,16.163746835475873L28.47,16.15394788996385L28.6,16.150159045636105L28.686666666666667,16.14933936428103L28.773333333333333,16.150346138165016L29.076666666666668,16.156577380499975L29.12,16.16116282511204L29.336666666666666,16.168349896636116L29.64,16.179368297079964L29.683333333333334,16.18698338774428L29.943333333333335,16.197838996519778L29.986666666666665,16.205438834232986L30.463333333333335,16.22275916845157L30.549999999999997,16.23562403041776L30.896666666666665,16.253720632713495L30.983333333333334,16.26729102875642L31.373333333333335,16.28822366962631L31.59,16.308306139243165L32.24,16.34470009678386L32.28333333333333,16.36825234848621L32.846666666666664,16.405799054011496L32.89,16.430207798600353L32.93333333333334,16.446748752454297L33.410000000000004,16.478305365871478L33.54,16.503391015857016L33.71333333333334,16.526804497248783L33.88666666666666,16.549409493233696L34.016666666666666,16.56950631134538L34.14666666666667,16.588210616434782L34.23333333333333,16.603921454639732L34.45,16.624782143473976L34.53666666666667,16.641951656021526L34.58,16.654598645457153L35.01333333333333,16.68629154165897L35.18666666666667,16.715272854256863L35.36,16.742822032441918L35.446666666666665,16.764506663800454L35.49,16.780109990666308L35.620000000000005,16.79731706715875L36.27,16.848477691308908L36.61666666666667,16.902042437621656L36.66,16.93708853582444L37.18,16.993962292648945L37.44,17.046646493337565L37.483333333333334,17.081389051569197L37.52666666666667,17.10538161015347L38.04666666666667,17.15844057866075L38.39333333333333,17.21698819618307L38.56666666666667,17.265753869159497L38.653333333333336,17.301906753311258L38.87,17.341027000466614L39.08666666666667,17.382219889048308L39.17333333333333,17.41409884744716L39.65,17.473500632233065L39.91,17.53169537256271L39.95333333333333,17.570418616788636L40.56,17.648081086561227L40.60333333333334,17.698657305462085L40.69,17.736982989617477L40.906666666666666,17.78014932309448L40.99333333333334,17.814193920091324L41.25333333333334,17.859347292645467L41.42666666666666,17.903156006065313L41.64333333333334,17.950593728761806L41.81666666666666,17.996185162506332L41.946666666666665,18.036510255919822L42.03333333333333,18.069412077386616L42.20666666666666,18.10670157354602L42.25,18.133488597258545L42.46666666666667,18.17181476440652L42.510000000000005,18.199298719846606L42.77,18.24294341142161L43.07333333333333,18.30133476833701L43.766666666666666,18.4121004586367L43.85333333333333,18.488233224069187L43.89666666666667,18.53876829123855L43.940000000000005,18.573959725276982L44.07,18.609738217304503L44.156666666666666,18.641036014955922L44.763333333333335,18.729940870443198L44.806666666666665,18.788378964875566L44.89333333333333,18.833669648382266L44.98,18.87111684281421L45.06666666666667,18.903895408368506L45.239999999999995,18.94433290376013L45.32666666666667,18.979048015245635L45.5,19.020924675993346L45.586666666666666,19.05663815913443L45.76,19.09938358775932L46.019999999999996,19.157347780606294L46.10666666666667,19.20299102080428L46.28,19.25224128634453L46.973333333333336,19.371062016407425L47.01666666666667,19.448034082833612L47.14666666666667,19.511308658248765L47.233333333333334,19.560730068149486L47.406666666666666,19.6134236229217L47.49333333333333,19.656631292878604L48.013333333333335,19.75304547805103L48.23,19.840745756304354L48.27333333333333,19.899367746922763L48.62,19.982978880234587L48.663333333333334,20.0392485382196L48.88,20.103705052922553L48.92333333333334,20.148553122419898L49.096666666666664,20.200263507608764L49.27,20.25627111213511L49.53,20.327684916075338L49.57333333333334,20.376872203210766L49.79,20.43825568281424L49.876666666666665,20.487913638387713L50.18,20.562954369546645L50.266666666666666,20.621005238259567L50.57,20.70178605116564L50.916666666666664,20.803431745601646L50.96,20.871117826879722L51.306666666666665,20.96570842407712L51.65333333333333,21.07714981114635L51.74,21.15779785766302L52.43333333333333,21.318037150966887L52.91,21.492713952726675L52.99666666666667,21.61194014570022L53.083333333333336,21.697940930882606L53.126666666666665,21.756790795746422L53.21333333333333,21.80663322028397L53.25666666666667,21.843818040414654L53.343333333333334,21.88072512787658L53.38666666666667,21.910186210329083L53.43,21.935187182689372L53.64666666666667,21.9869817175587L53.906666666666666,22.062570090777847L54.77333333333333,22.259126361496563L55.12,22.43875677320283L55.25,22.56985296685569L55.29333333333334,22.656303313026253L55.379999999999995,22.723792498796833L55.46666666666667,22.779946199351333L55.553333333333335,22.829347312713566L55.81333333333333,22.906361925963054L56.50666666666666,23.08079692163243L56.55,23.193561504920723L56.63666666666666,23.277464891234274L56.766666666666666,23.3522525531244L57.11333333333334,23.462778057830498L57.156666666666666,23.53735055126636L57.54666666666667,23.656869577014604L57.72,23.762089301372697L58.06666666666666,23.8927510183766L58.196666666666665,23.996646433019425L58.28333333333333,24.076033806340625L58.80333333333333,24.226862380702595L59.02,24.36080718390873L59.19333333333333,24.47612101412227L59.410000000000004,24.589229024386167L59.97333333333333,24.77251092273637L60.06,24.900391871327738L60.32,25.031110628283315L60.45,25.13667372202736L60.53666666666667,25.218155668171686L60.71,25.303452902269207L60.75333333333333,25.363757611299125L61.013333333333335,25.4549271820055L61.879999999999995,25.695603036040524L61.96666666666667,25.858830747025877L62.053333333333335,25.975630783205386L62.48666666666667,26.14064976467013L62.79,26.306722728847923L63.05,26.46424926368806L63.39666666666667,26.636507908001555L64.09,26.897292952446517L64.22,27.083567042325935L64.39333333333333,27.235212528044535L64.65333333333334,27.386322956928087L64.74,27.497111433304617L64.95666666666666,27.614060530527336L65.08666666666667,27.71463623160547L65.17333333333333,27.79530243350494L65.65,27.956178278310855L65.95333333333333,28.124905499114035L66.12666666666668,28.267615107493118L66.21333333333332,28.3740374537767L66.56,28.521474310983706L66.60333333333332,28.620426504125625L67.42666666666668,28.881005024647983L67.60000000000001,29.080159151451095L68.03333333333333,29.307354765337134L68.07666666666665,29.454495647134593L68.16333333333333,29.56445342834183L68.33666666666666,29.673894487938714L68.72666666666666,29.837926091353236L69.24666666666666,30.06870736934118L69.42,30.251605366383668L69.50666666666666,30.383613103356506L69.63666666666666,30.49629608279559L69.72333333333333,30.586272217081095L69.81,30.662661708841668L70.24333333333334,30.821083921265842L70.28666666666666,30.927447801559865L70.41666666666666,31.02525398510569L70.46000000000001,31.09528945909663L70.59,31.171410992562205L70.72,31.251270330217157L70.80666666666666,31.322024332978962L71.02333333333334,31.42173757915389L71.32666666666667,31.56212183926548L71.54333333333334,31.704171461901613L71.58666666666666,31.800996519033585L72.10666666666667,31.998916811039447L72.54,32.235210319395456L72.62666666666667,32.40060408757582L72.67,32.51166416589427L72.97333333333333,32.66131794735741L73.19,32.810682624549734L73.36333333333333,32.94812495090374L73.40666666666667,33.04257151530866L73.92666666666666,33.24368783927156L74.27333333333334,33.461379623342985L74.44666666666666,33.64072110989412L74.66333333333334,33.80943820385145L74.75,33.93517403363535L74.92333333333333,34.05973907202636L75.57333333333334,34.319953927928324L75.66,34.50096306055107L75.87666666666667,34.67192456578261L75.92,34.786999648541475L76.00666666666666,34.881067282633786L76.13666666666667,34.975103556280516L76.31,35.081780290918836L76.57,35.22143103934772L76.74333333333334,35.355824879330356L76.96,35.49991117434022L77.22,35.66279066844664L77.35,35.79884836361906L77.56666666666666,35.94453989773155L77.69666666666667,36.070494618484L77.91333333333334,36.21046904196279L77.95666666666666,36.30735649299583L78.08666666666667,36.404257297760566L78.25999999999999,36.51421127706546L78.64999999999999,36.697256690710844L78.95333333333333,36.89861736949605L79.08333333333333,37.058786558160485L79.12666666666667,37.16802314862159L79.51666666666667,37.35215919038927L79.95,37.59520544005203L80.08,37.78096292557794L80.34,37.97250542221004L80.6,38.167814895586744L80.77333333333333,38.338754740640105L81.25,38.58982069916375L81.29333333333332,38.75400746177967L81.46666666666667,38.90679818431747L81.72666666666667,39.08013038852261L81.9,39.23873431774861L82.03,39.37493161574507L83.07000000000001,39.787529559194L83.89333333333333,40.300266278405L83.98,40.63598800305259L84.02333333333333,40.85147025054344L84.06666666666666,40.99482005111041L84.45666666666666,41.20770368829413L84.80333333333333,41.44873796120581L84.84666666666666,41.60755759592395L84.93333333333334,41.731266250980674L84.97666666666666,41.819712993726164L85.54,42.058343040745385L85.62666666666667,42.2301814628696L86.10333333333334,42.49146741180182L86.23333333333333,42.69153678148127L86.40666666666667,42.86941245568504L86.58,43.03409179921843L86.75333333333333,43.1909732309647L87.05666666666666,43.38701695218328L87.10000000000001,43.51923188738448L87.14333333333333,43.61315704388872L87.23,43.698727007298594L87.36,43.793943739999584L87.88000000000001,44.02723966753684L88.14,44.25568979951644L88.27000000000001,44.43709544753592L88.31333333333333,44.56072984748059L88.74666666666667,44.783232709016424L88.87666666666667,44.961369711307306L89.35333333333334,45.232462857203L89.48333333333333,45.440050000190695L89.61333333333333,45.609600977654594L89.83,45.786463007208084L89.96,45.937743760707164L90.35,46.16438121223634L90.82666666666667,46.46718216155256L91.04333333333334,46.72496450650809L91.13,46.910122578273715L92.17,47.389179414604776L92.51666666666667,47.800119208655126L92.60333333333334,48.07762881759756L92.73333333333333,48.29059813921208L92.99333333333334,48.5114829281447L93.03666666666666,48.65955410398139L93.34,48.857362503202424L93.68666666666667,49.100965649170405L93.86,49.3097420679228L94.03333333333335,49.497723604677276L94.20666666666666,49.673329366564474L94.33666666666667,49.825871953179465L94.42333333333335,49.94888272742846L94.68333333333334,50.11729471708678L95.07333333333332,50.36067354815455L95.42,50.63364203985972L95.50666666666667,50.829219313070645L95.63666666666667,50.99430677498798L95.72333333333333,51.12521912009045L95.76666666666667,51.219703954041435L95.81,51.29233977421492L96.11333333333333,51.44770054903522L96.28666666666668,51.60492522699906L96.33,51.71527613625799L96.63333333333333,51.89377548264354L96.98,52.12956213237116L97.02333333333333,52.287143886106364L97.19666666666667,52.446203176619726L97.28333333333333,52.57392946140271L97.67333333333333,52.79616003334892L98.15,53.10808822193151L98.58333333333333,53.45820101660082L98.67,53.7009303030927L98.97333333333333,53.96105209945631L99.01666666666668,54.13350468605697L99.19,54.30254297708484L99.32000000000001,54.45320188592382L99.49333333333333,54.60931757502018L99.66666666666667,54.768800993689005L100.49000000000001,55.178290513352046L100.66333333333333,55.49029650910471L100.96666666666665,55.793752658596915L101.22666666666666,56.0756806592667L101.31333333333333,56.27816219219844L101.70333333333333,56.54987653354057L101.87666666666667,56.77980936246256L102.26666666666667,57.0686014073876L102.48333333333333,57.32584971527844L102.52666666666666,57.497009051318315L102.57000000000001,57.61651875070436L103.26333333333334,57.95794697547975L103.48,58.24735394561577L103.78333333333333,58.539573482904736L103.95666666666666,58.7827685223153L104.08666666666666,58.97963361090524L104.34666666666666,59.19977991993164L104.39,59.34888785822922L104.43333333333334,59.45538026700296L104.56333333333333,59.57038112839307L104.78,59.72465474664497L105.04,59.91969949473175L105.08333333333333,60.05382142559998L105.51666666666667,60.30551140270963L105.56,60.473672921385635L105.73333333333333,60.64320491971287L105.77666666666667,60.762094129859776L105.94999999999999,60.902152658030836L106.03666666666666,61.02057650117196L106.29666666666667,61.19490563301705L106.42666666666666,61.35120421486854L106.6,61.5139743644895L106.64333333333333,61.62889638037396L106.72999999999999,61.73238068149849L106.77333333333334,61.81174242765525L106.86,61.89391679214023L107.33666666666666,62.13360135554584L107.42333333333333,62.31208180408176L107.77,62.55801750572594L107.81333333333333,62.722954992982636L107.94333333333334,62.87406816288757L109.46,63.575888056750564L109.89333333333335,64.17249025105892L110.36999999999999,64.72395980372025L110.67333333333335,65.17821984804026L110.71666666666667,65.46841793932963L111.23666666666666,65.85451131535547L111.36666666666667,66.1392433933319L111.75666666666667,66.46950186649326L112.19,66.84513035170218L112.53666666666668,67.21273417931215L112.58,67.45108839884432L112.66666666666667,67.62969976232287L112.79666666666667,67.79028730678924L113.05666666666667,67.99357494764547L113.27333333333333,68.204750666677L113.31666666666668,68.34930796436963L113.49,68.50747603327711L113.53333333333333,68.62024372672222L113.83666666666667,68.81306596891149L114.22666666666667,69.08990565714873L114.35666666666667,69.30978236340206L114.79,69.62114867824447L115.22333333333333,69.98771222123473L115.65666666666667,70.38769007119463L116.43666666666667,70.95247210010734L116.74000000000001,71.41788913256383L117.04333333333334,71.82382203958848L117.13000000000001,72.10360252737816L117.39,72.38018924762741L117.47666666666666,72.58240323437576L117.60666666666665,72.75814141737824L117.65,72.8817246706209L117.91,73.06478037297799L118.08333333333333,73.24726508311838L118.56,73.55675300831902L118.69,73.7970428772289L118.90666666666667,74.03225569688571L119.47,74.41035052271525L120.51,75.0756664875964L121.33333333333333,75.82280823445194L121.55000000000001,76.36277282497535L121.59333333333333,76.70509423139353L122.02666666666667,77.09401100416035L122.15666666666667,77.38245271389705L122.37333333333333,77.64736961915833L122.72,77.95337568151255L122.85,78.19215338704954L123.15333333333334,78.46421569951296L123.32666666666667,78.70108594737792L123.58666666666666,78.95370234415789L123.89,79.2342514477464L124.49666666666667,79.6607492425169L124.97333333333334,80.11967964843934L125.19,80.48738055724246L125.36333333333334,80.78189246842496L125.40666666666667,80.97707713968053L125.53666666666666,81.14962426252876L125.58,81.27163380724049L126.88,81.8997759428948L127.00999999999999,82.33220619162715L127.18333333333334,82.66573179023308L127.22666666666667,82.88436963142334L127.44333333333333,83.1081609998143L127.48666666666666,83.26096204933232L128.00666666666666,83.57500237832491L128.35333333333332,83.91172631854916L128.44,84.15084311130435L128.48333333333332,84.31285440126777L129.35,84.7810278268074L129.69666666666666,85.21037399031528L129.91333333333333,85.56077392847614L130,85.80813378456047L130.13,86.01223328444952L130.21666666666667,86.17181662402753L130.26,86.28612657436821L130.56333333333333,86.48465839592707L130.73666666666668,86.67803600752167L130.78,86.81263001398575L130.82333333333332,86.91195385737157L130.91,87.00867929596104L130.99666666666667,87.10384943812944L131.21333333333334,87.25378872096726L131.3,87.38088716968464L131.64666666666665,87.60569699434407L132.81666666666666,88.24195995268911L132.86,88.6422889136602L132.94666666666666,88.9196211692576L133.33666666666667,89.25313122463892L133.38,89.47180469737506L133.68333333333334,89.73296961819807L133.81333333333333,89.94536339630051L133.85666666666668,90.09136335621263L133.98666666666665,90.23465441131174L134.29,90.45056365635553L134.37666666666667,90.6172290965696L134.59333333333333,90.81002060075417L135.11333333333334,91.14835866554107L135.15666666666667,91.36991395809368L135.50333333333333,91.65124053787197L135.54666666666665,91.8385851929627L135.85,92.08080296492965L135.98000000000002,92.28175727104072L136.02333333333334,92.42086732256097L136.06666666666666,92.52287456778343L136.1966666666667,92.63969131847766L137.02,93.06184339984358L137.36666666666667,93.4632807867663L137.41,93.72265820803321L137.54000000000002,93.93382213521971L137.84333333333333,94.1900767113871L137.97333333333333,94.39933695986014L138.06,94.56189311551671L138.19,94.71491932585637L138.36333333333334,94.88071258646538L138.75333333333333,95.14656868579318L139.01333333333332,95.41695123912292L139.18666666666667,95.6530683905647L139.23,95.81320871306237L139.40333333333334,95.98315804726455L139.44666666666666,96.10359018650506L139.48999999999998,96.19431200876853L139.70666666666668,96.34103157052547L139.92333333333335,96.5213198043247L139.96666666666667,96.64794029749655L140.14000000000001,96.7976840726852L140.35666666666668,96.97971565186579L140.4,97.10736716643959L140.44333333333333,97.20239064224926L140.57333333333332,97.31469118956113L140.96333333333334,97.54784848137862L141.00666666666666,97.70615294479423L141.04999999999998,97.81954571116866L141.26666666666668,97.97960933387844L141.48333333333335,98.16763800582223L141.61333333333332,98.33562740388456L141.74333333333334,98.49158012501957L141.82999999999998,98.62191573749995L141.91666666666666,98.73687546510244L142.04666666666668,98.86097291939433L142.35,99.06399105433725L142.87,99.40598494323011L142.95666666666665,99.64785159494718L143.52,100.03114695230528L143.56333333333333,100.2794312274854L144.04000000000002,100.62965020825459L144.47333333333333,101.02251502326399L144.56,101.2947562456105L144.64666666666668,101.49461207298914L144.90666666666667,101.7240120206195L145.21,101.98928253029881L145.25333333333333,102.1666694748238L145.47,102.36418549733035L145.64333333333335,102.55552248302625L145.68666666666667,102.68852496119251L145.86,102.84110511634688L146.42333333333335,103.16891788283985L146.51,103.40191620127182L146.55333333333334,103.55986677514235L146.94333333333336,103.81789084429373L147.03,104.00895600101316L147.11666666666665,104.15983457090334L147.46333333333334,104.39521658871153L147.81,104.68113021148976L147.94,104.90688961390399L147.98333333333335,105.06041066965933L148.11333333333334,105.20670081374928L148.2,105.3305795036198L148.24333333333334,105.42295527279366L148.37333333333333,105.5325095409974L148.63333333333333,105.70642103972727L148.80666666666667,105.8828310339862L148.85,106.0066843747692L149.45666666666665,106.33280510157313L149.58666666666667,106.58236095143971L149.71666666666667,106.78594977671845L150.01999999999998,107.03365807596356L150.15,107.23604658267979L150.23666666666665,107.39330705232874L150.49666666666667,107.59506675538462L150.71333333333334,107.80553738654064L150.97333333333333,108.03901151169606L151.06,108.21479971933675L151.36333333333334,108.4451345535057L151.49333333333334,108.63679739141023L151.57999999999998,108.78742015110926L151.62333333333333,108.89560258895007L151.75333333333333,109.01391217252183L152.1,109.2271527575749L152.49,109.51486850191395L152.70666666666668,109.77613724129871L152.92333333333332,110.02144786274961L153.14,110.25709369847888L153.70333333333332,110.62804720870031L153.79000000000002,110.88588283871594L154.22333333333333,111.21667142905082L154.52666666666667,111.53817822195664L154.65666666666667,111.78375373273525L154.87333333333333,112.01880546426028L155.26333333333332,112.31746117678162L155.30666666666667,112.51414868395135L155.5666666666667,112.73704137091833L155.82666666666668,112.97551105395162L155.95666666666668,113.17090463896149L156.13,113.35783425111259L156.17333333333335,113.4874036760123L156.21666666666667,113.58255511533285L156.3033333333333,113.67445056185962L156.47666666666666,113.79914641847897L156.60666666666668,113.9260902580328L156.65,114.0196232618935L156.82333333333332,114.14516678047121L156.86666666666667,114.23783898623428L156.91,114.31078465785184L157.12666666666667,114.44119449217162L157.21333333333334,114.55406701900375L157.64666666666665,114.7946651607906L157.95000000000002,115.05977796565311L158.25333333333333,115.33938040064288L158.38333333333333,115.55873244390794L159.16333333333333,115.99903109813346L159.38,116.348693193663L159.77,116.71206333164368L159.9,116.98119083055796L159.98666666666665,117.17671512858344L160.29000000000002,117.41304339804243L160.46333333333334,117.62274301455055L160.50666666666666,117.76552674048638L160.85333333333335,117.9867306676011L161.02666666666664,118.18710091964566L161.07000000000002,118.32422333713909L161.2,118.45716761478143L161.28666666666666,118.57068975641954L161.59,118.75679020290464L161.76333333333332,118.93576118546657L161.93666666666667,119.11037394085515L162.11,119.28228933789183L162.19666666666666,119.4189824763618L162.45666666666668,119.60150642711605L163.14999999999998,119.97813192237807L163.28,120.25403999470761L163.41,120.46947265579702L163.54,120.64856949297658L163.58333333333334,120.77263001824171L163.8,120.92999789936829L164.40666666666667,121.25590656912576L164.53666666666666,121.50091811229086L164.58,121.66440195484718L164.92666666666665,121.89411652434625L165.27333333333334,122.16321361662247L165.83666666666667,122.53721585466201L166.14000000000001,122.87566683297459L166.4,123.17627267422657L166.61666666666667,123.43775445989245L167.09333333333333,123.77259273260762L167.44,124.1024674688438L167.48333333333332,124.31648708865725L167.70000000000002,124.52528283594279L167.78666666666666,124.68267303809486L167.87333333333333,124.80919556119812L168.00333333333333,124.93319672029749L168.09,125.03962400103327L168.30666666666667,125.1834447417195L168.35,125.2857120775879L168.6966666666667,125.47465244304435L168.74,125.60393535692407L168.87,125.72922747095907L169.17333333333332,125.91553950476867L169.30333333333334,126.0748655143823L169.34666666666666,126.18629364625176L169.39,126.26897743178968L169.78,126.46075074983275L169.95333333333332,126.6388357623844L170.12666666666667,126.80860476408135L170.43,127.02033100843147L170.47333333333333,127.1630363102755L170.69,127.32690985967702L171.34,127.65902038159754L171.38333333333333,127.87382137754189L171.55666666666667,128.0647713968272L171.64333333333335,128.21033771807643L171.94666666666666,128.40595572973675L172.12,128.5850531576617L172.51,128.8310106264643L172.5533333333333,128.99393996061528L172.5966666666667,129.1070467942902L172.64000000000001,129.19025263476607L172.68333333333334,129.25551225963744L172.85666666666668,129.35594133422583L172.94333333333333,129.44679421778778L173.03,129.5318751615368L173.16,129.62872790765238L173.29,129.73258191865204L173.33333333333331,129.81012741827786L173.46333333333334,129.90231653256419L173.94,130.12452528189743L174.20000000000002,130.34853164319145L174.46,130.57336743229L174.85,130.8434466839139L174.89333333333332,131.0204800617707L175.10999999999999,131.20151682919538L175.24,131.35494651202873L175.5,131.53642475073633L175.67333333333332,131.70478294794387L175.84666666666666,131.86515298009306L176.19333333333333,132.07974617269866L176.32333333333335,132.2527702208728L176.58333333333334,132.44492797247767L176.62666666666667,132.57492184638392L176.97333333333333,132.77024408261872L177.10333333333335,132.93131405224307L177.14666666666668,133.0425653419997L177.27666666666664,133.15310470200419L177.66666666666666,133.35039507881768L178.23,133.6568788968477L178.27333333333334,133.855187426355L178.31666666666666,133.98858328983525L178.36,134.0830221875574L178.49,134.18284845406887L178.96666666666667,134.40042695766124L180.00666666666666,134.871806086746L180.13666666666666,135.19692544088747L180.22333333333336,135.42015167562778L180.31,135.58221394030195L180.44,135.72158020492975L180.52666666666667,135.8332459387169L180.61333333333334,135.92826138234597L180.74333333333334,136.02723471025098L180.78666666666666,136.1005911173335L181.56666666666666,136.39476524296012L182,136.70913745242623L182.30333333333334,136.99379182999698L182.47666666666666,137.2192827246604L182.51999999999998,137.3682312229767L182.73666666666665,137.52575211617116L182.78,137.63386990966873L182.91,137.73950952780098L183.38666666666668,137.95175313678877L183.43,138.09258279991892L183.95000000000002,138.33824473639015L183.99333333333334,138.49901862199383L184.07999999999998,138.62221204882923L184.12333333333333,138.70947954006857L184.25333333333333,138.80184657290323L184.29666666666665,138.8705854462458L184.34,138.92513993097967L184.64333333333332,139.05081378353074L184.73000000000002,139.15269711454854L184.81666666666666,139.24027335114997L185.33666666666667,139.4507921871922L185.46666666666667,139.61640756627347L185.51000000000002,139.728861293819L185.55333333333334,139.8094096009154L185.59666666666666,139.87080622621474L185.77,139.95982953366993L185.9,140.05229377315618L186.55,140.30187155647192L186.63666666666666,140.47735357428948L186.89666666666668,140.659639963502L186.98333333333332,140.79460852595892L187.15666666666667,140.9266791571179L187.33,141.0568733472136L187.37333333333333,141.14770627199496L188.0233333333333,141.39190505306945L188.41333333333333,141.6512994430211L188.5,141.83192213347604L188.58666666666667,141.96524714950826L188.71666666666667,142.08260276215972L188.8033333333333,142.17787948977696L188.93333333333334,142.27227406678003L189.32333333333332,142.4401159512056L189.45333333333335,142.57772930024407L189.58333333333331,142.69712497923078L190.53666666666666,143.03636523387686L190.75333333333333,143.30011962923564L191.01333333333335,143.53032484099865L191.14333333333332,143.70430155887271L191.31666666666666,143.85636406120946L191.57666666666668,144.01884231038235L191.70666666666665,144.15182600069969L191.79333333333335,144.255234814671L191.88,144.3408621748817L192.01000000000002,144.4275423893006L192.09666666666666,144.50303986497602L192.22666666666666,144.58350352977513L192.96333333333334,144.8294775667304L193.00666666666666,144.9886066952881L193.13666666666666,145.11866490456816L193.48333333333332,145.28850300561808L193.52666666666664,145.4018391155452L193.91666666666666,145.57231667556616L193.96,145.68594279945785L194.17666666666668,145.8106721746047L194.22,145.8967922541069L194.26333333333332,145.9597373900806L194.39333333333335,146.03126753963093L194.65333333333334,146.1414541963939L194.87,146.2633621703918L195,146.36987008850173L195.34666666666666,146.52232328057357L195.52,146.65783947763836L195.60666666666665,146.76111467163017L195.99666666666667,146.9214448824533L196.21333333333334,147.07195258218337L196.47333333333336,147.22711024108355L196.51666666666668,147.33097964595214L196.73333333333335,147.4470301613178L197.03666666666666,147.5914725281769L197.34,147.75247233270022L197.6,147.91240606627616L197.73,148.03990116925328L197.81666666666666,148.13737183237572L197.86,148.2063265133975L198.16333333333333,148.32072900286545L198.51,148.47224118259197L198.55333333333334,148.57346342239393L198.64000000000001,148.6547957219392L198.81333333333333,148.7446740629937L198.98666666666665,148.8395208045431L199.20333333333332,148.94735537229022L199.72333333333333,149.13326148076374L199.98333333333332,149.30486833999268L200.24333333333334,149.4675331799872L200.37333333333333,149.59484710546346L200.63333333333333,149.73039294898186L201.1533333333333,149.92894240280992L201.32666666666665,150.08682261358229L201.63,150.2489710385756L201.76000000000002,150.37500197291797L202.23666666666668,150.5552206685487L202.67,150.75736640748838L202.7133333333333,150.88799845052756L202.84333333333333,150.99435153206971L203.10333333333332,151.11383104479242L203.32,151.23162452205824L203.97,151.43906594761788L204.01333333333332,151.57256538333542L204.36,151.7245670421479L204.57666666666668,151.86036773146594L204.83666666666667,151.99502347852075L204.92333333333335,152.09345805483684L204.96666666666667,152.16132391053412L205.22666666666666,152.2546521058375L205.66,152.39749001657495L205.79,152.50903956793294L205.87666666666667,152.59314773942592L205.92000000000002,152.65218547191265L205.96333333333334,152.69617157485382L206.13666666666666,152.75670844317017L206.57,152.87765365533681L206.61333333333332,152.95862502167535L206.70000000000002,153.02398353805916L207.13333333333333,153.14644116976473L207.17666666666665,153.22818136892792L207.91333333333333,153.41610757567312L208.21666666666664,153.58515100210488L208.39,153.71850436213703L208.78,153.8697243444308L208.99666666666664,153.99963958803374L209.21333333333334,154.11650130692416L209.47333333333333,154.23295638820733L209.86333333333334,154.37160501622586L210.03666666666666,154.48507867593804L210.21,154.58327314442892L210.34,154.66465826309113L210.60000000000002,154.75813211257127L210.81666666666666,154.85111902095738L211.07666666666665,154.95083275135315L211.29333333333332,155.04696040875663L211.42333333333335,155.12628590335876L211.46666666666667,155.1810753336378L211.77,155.2640016535926L212.11666666666665,155.37029990700717L212.46333333333334,155.4899160500199L212.63666666666666,155.58933926949652L212.76666666666668,155.6696174454295L212.89666666666665,155.73830931413315L212.94,155.78634392320106L213.28666666666666,155.8693206571524L213.37333333333333,155.93253493502408L213.85,156.04352315425575L214.19666666666666,156.16240538224432L214.45666666666665,156.2724824476704L214.67333333333332,156.37051125133576L214.84666666666666,156.45471358765965L215.19333333333333,156.55546841777812L216.19,156.7563375771236L216.45000000000002,156.91250941827002L216.62333333333333,157.02975432037604L217.27333333333334,157.186770386493L217.53333333333333,157.31493463172922L217.66333333333333,157.4086571110819L217.75,157.47604988834297L218.05333333333334,157.55518504770228L218.1833333333333,157.6190812434392L218.35666666666665,157.67914606832548L218.53,157.73672989924327L218.57333333333332,157.77663809921154L218.61666666666667,157.8059292129328L218.70333333333332,157.83416255053572L218.9633333333333,157.8828041332531L219.26666666666668,157.94845475106652L219.35333333333332,157.99816099033478L219.44,158.0382547083811L219.61333333333334,158.08271367420227L219.7433333333333,158.12457110124816L219.7866666666667,158.15472313684364L219.87333333333333,158.18285579882638L220.22,158.23944081264813L220.5666666666667,158.312362463749L220.65333333333334,158.3657433798744L221.26,158.46387722177067L221.39000000000001,158.5366292512236L221.51999999999998,158.5940482290365L221.95333333333335,158.67364207767216L222.12666666666667,158.73913177143348L222.25666666666666,158.79160421751214L222.90666666666667,158.88741809350896L223.12333333333333,158.96577043658414L223.16666666666666,159.01691980387716L223.34,159.0640451298863L223.51333333333335,159.10857058151743L223.55666666666667,159.13931891315588L223.6,159.1617897334285L223.68666666666667,159.18328121344655L223.90333333333334,159.21599438920236L223.94666666666666,159.2395509228345L223.99,159.25760223182223L224.38,159.30316313932207L224.72666666666666,159.36057904821757L224.9,159.40978822811283L224.98666666666665,159.446623541419L225.24666666666664,159.49037362956273L225.59333333333333,159.54483496986228L225.63666666666666,159.58098567603622L225.89666666666668,159.62327271386923L226.02666666666664,159.65878565829752L226.37333333333333,159.70661974345774L226.41666666666666,159.73858289005042L226.63333333333335,159.77390004525134L226.76333333333332,159.80463350025346L226.80666666666664,159.82623089965605L226.93666666666667,159.84859154074505L227.06666666666666,159.87130428944357L227.19666666666666,159.89412293361252L227.71666666666667,159.94351972588967L227.89,159.98468330704983L228.19333333333336,160.02909858915945L228.45333333333335,160.0721890837436L228.58333333333334,160.1061052870498L228.62666666666667,160.12911827145473L228.67,160.14557808514883L228.8,160.1633388598409L228.84333333333333,160.17660004869114L229.14666666666665,160.20245967374782L229.23333333333335,160.2229844614173L229.32,160.24026104763834L229.58,160.26522881443955L229.79666666666668,160.2920534291354L229.84,160.3104813038757L229.97,160.3284671004246L230.1,160.34608134434927L230.18666666666667,160.36113955077667L230.27333333333334,160.37461636738246L230.62,160.39999844310375L230.96666666666667,160.43176595342257L231.05333333333334,160.45484266121835L231.14000000000001,160.47265805679132L231.18333333333334,160.4853137156063L231.22666666666666,160.4948622929964L231.53,160.5139438111827L231.57333333333335,160.52725283785628L232.35333333333335,160.56669444110085L232.48333333333332,160.59522839186315L232.96,160.6292893029969L233.22,160.65836096411113L233.78333333333333,160.69304655952917L234.04333333333332,160.7211391554165L234.08666666666667,160.73916688559535L234.34666666666666,160.75676554698117L234.4333333333333,160.76949019579718L234.60666666666665,160.78131399200748L235.08333333333334,160.7989461158746L235.17,160.81128669316064L235.2566666666667,160.82040504348194L235.43,160.82916075960452L235.51666666666668,160.83598535956529L235.73333333333332,160.84379988275822L235.90666666666667,160.85124973527707L236.12333333333333,160.8589041350009L237.38,160.8760975137079L237.46666666666667,160.88691369290427L237.85666666666668,160.89506448567062L237.9,160.9000795310164L237.94333333333333,160.90320188853963L238.29,160.90555157136419" style="fill: none;" fill="none"></path></g></g></g></g><g opacity="0.2"><g><g><g><path stroke="rgb(255, 112, 67)" stroke-width="2px" d="M21.84,170.56363652623259L22.273333333333333,154.47272667104633L22.316666666666666,152.8636352172206L22.446666666666665,148.03636319727892L22.49,146.4272717434532L22.793333333333333,135.1636362497441L22.836666666666666,133.55454713745382L23.4,112.63636526232585L23.703333333333333,101.3727274270813L23.746666666666666,99.76363831479102L23.79,98.15454451942986L24.006666666666668,90.10909427490763L24.35333333333333,77.2363626443019L24.39666666666667,75.62726884894073L24.526666666666667,70.79999682899903L24.57,69.19091239977966L24.7,64.36364037983797L24.743333333333332,62.75454658447681L25.003333333333334,53.1000025445934L25.220000000000002,45.054542933929376L25.523333333333333,33.790905098684824L25.956666666666667,17.700004609640352L26.130000000000003,16.091051306406214L26.303333333333335,16.091632007197912L26.91,16.09747647968206L27.083333333333336,16.100211393088102L27.126666666666665,16.10096068443223L27.213333333333335,16.1025716608221L27.3,16.104295030913573L27.56,16.110195700248546L27.906666666666666,16.119711700318895L27.993333333333332,16.122390416874133L28.03666666666667,16.123776605860765L28.166666666666668,16.128103763373073L28.47,16.139249472116894L28.6,16.14447577924214L28.686666666666667,16.148109842261142L28.773333333333333,16.15185629898175L29.076666666666668,16.165924243967645L29.12,16.168040992014802L29.336666666666666,16.1791305039078L29.64,16.19589589773255L29.683333333333334,16.19840602373536L29.943333333333335,16.21412240967832L29.986666666666665,16.216838590800762L30.463333333333335,16.24873966977678L30.549999999999997,16.25492132336579L30.896666666666665,16.280865536156032L30.983333333333334,16.28764662282034L31.373333333333335,16.319622630930763L31.59,16.33842984366825L32.24,16.399291033094592L32.28333333333333,16.403580726039696L32.846666666666664,16.46211911229926L32.89,16.46682091548363L32.93333333333334,16.471560183235205L33.410000000000004,16.525640285997234L33.54,16.541019490835357L33.71333333333334,16.561924719336364L33.88666666666666,16.583316987211063L34.016666666666666,16.599651538512926L34.14666666666667,16.61626707406885L34.23333333333333,16.627487711947076L34.45,16.65607317672535L34.53666666666667,16.667705924842863L34.58,16.673569129610613L35.01333333333333,16.733830885961652L35.18666666666667,16.758744823153727L35.36,16.78414579971949L35.446666666666665,16.797033610838387L35.49,16.803514980965055L35.620000000000005,16.823127681897457L36.27,16.925218627534132L36.61666666666667,16.982389557090688L36.66,16.98965768312867L37.18,17.079272927885718L37.44,17.125672794370495L37.483333333333334,17.133502888916574L37.52666666666667,17.141370448029857L38.04666666666667,17.238029031421654L38.39333333333333,17.304809622466564L38.56666666666667,17.338902378624148L38.653333333333336,17.35613607953897L38.87,17.399707371199682L39.08666666666667,17.444009221920922L39.17333333333333,17.461917285045452L39.65,17.562603309411912L39.91,17.618987483057115L39.95333333333333,17.628503483127467L40.56,17.764574791220117L40.60333333333334,17.774521633813336L40.69,17.7944715158506L40.906666666666666,17.844898823310047L40.99333333333334,17.86526081558656L41.25333333333334,17.92707735147666L41.42666666666666,17.968869076195094L41.64333333333334,18.021750312806542L41.81666666666666,18.064572313123143L41.946666666666665,18.096997896040037L42.03333333333333,18.1187648095868L42.20666666666666,18.162635817785173L42.25,18.173669132827364L42.46666666666667,18.229304015128456L42.510000000000005,18.240524653006702L42.77,18.308410448784187L43.07333333333333,18.38892180371015L43.766666666666666,18.578248994086294L43.85333333333333,18.60243237221784L43.89666666666667,18.614570891992624L43.940000000000005,18.626746876334614L44.07,18.663405955345805L44.156666666666666,18.687982711433015L44.763333333333335,18.863298153674073L44.806666666666665,18.876036106524158L44.89333333333333,18.901605673642333L44.98,18.927287634462118L45.06666666666667,18.95306325669995L45.239999999999995,19.004989146847635L45.32666666666667,19.03112068247389L45.5,19.0837396671149L45.586666666666666,19.110208383846018L45.76,19.163501730696733L46.019999999999996,19.244294069876737L46.10666666666667,19.27145588110118L46.28,19.326116684654906L46.973333333333336,19.549293111501775L47.01666666666667,19.5634921824729L47.14666666666667,19.606220521371476L47.233333333333334,19.634862183000557L47.406666666666666,19.69246395507998L47.49333333333333,19.72144279781392L48.013333333333335,19.897666755809706L48.23,19.9722961736843L48.27333333333333,19.987300732850354L48.62,20.10839558020234L48.663333333333334,20.123653025197044L48.88,20.200389824976988L48.92333333333334,20.21582522666591L49.096666666666664,20.277829085392046L49.27,20.34028251892465L49.53,20.434805621985703L49.57333333333334,20.450653133913875L49.79,20.53033090221951L49.876666666666665,20.56240057174794L50.18,20.675515466285038L50.266666666666666,20.708081541328948L50.57,20.82295727052472L50.916666666666664,20.955900287255645L50.96,20.972646948796797L51.306666666666665,21.10759431987325L51.65333333333333,21.244311891750193L51.74,21.278769927438013L52.43333333333333,21.55839609092272L52.91,21.75472915536641L52.99666666666667,21.79077943516049L53.083333333333336,21.8269421086562L53.126666666666665,21.84506559304217L53.21333333333333,21.881396857090294L53.25666666666667,21.89959527061067L53.343333333333334,21.936085759069435L53.38666666666667,21.954377834007836L53.43,21.972688641229823L53.64666666666667,22.06467351986266L53.906666666666666,22.175952650606632L54.77333333333333,22.55396076757461L55.12,22.708202390762224L55.25,22.766497257334954L55.29333333333334,22.785978832282126L55.379999999999995,22.825026277452707L55.46666666666667,22.864176750183105L55.553333333333335,22.90344898275694L55.81333333333333,23.02188384583729L56.50666666666666,23.342449415136485L56.55,23.36270837985318L56.63666666666666,23.403319970704615L56.766666666666666,23.46443404595962L57.11333333333334,23.628566314889632L57.156666666666666,23.649209291420203L57.54666666666667,23.83614811563696L57.72,23.91991888790986L58.06666666666666,24.088743593882434L58.196666666666665,24.152489554983664L58.28333333333333,24.19511486632242L58.80333333333333,24.45310524224559L59.02,24.56172438871793L59.19333333333333,24.64909175944261L59.410000000000004,24.758891039781965L59.97333333333333,25.047433770261705L60.06,25.092213294214826L60.32,25.227188763716693L60.45,25.295018362643376L60.53666666666667,25.340378587388194L60.71,25.431398753415458L60.75333333333333,25.45421467484399L61.013333333333335,25.591681538065064L61.879999999999995,26.056616817093037L61.96666666666667,26.10367231350392L62.053333333333335,26.15083083747464L62.48666666666667,26.388178236867223L62.79,26.555832175114627L63.05,26.70053906594827L63.39666666666667,26.89489587447184L64.09,27.28847051911395L64.22,27.362978177145123L64.39333333333333,27.46268075662243L64.65333333333334,27.612988600253384L64.74,27.663294147869415L64.95666666666666,27.789484176361437L65.08666666666667,27.865499783222663L65.17333333333333,27.916301736354153L65.65,28.197492045519716L65.95333333333333,28.377996330318815L66.12666666666668,28.481679520061753L66.21333333333332,28.533670973202057L66.56,28.742629596794202L66.60333333333332,28.768854793838482L67.42666666666668,29.271872805431485L67.60000000000001,29.378890341655787L68.03333333333333,29.648148186166196L68.07666666666665,29.675206969830803L68.16333333333333,29.729390100152667L68.33666666666666,29.83805607733402L68.72666666666666,30.083973496475018L69.24666666666666,30.4148792863231L69.42,30.52595236194744L69.50666666666666,30.581624708815735L69.63666666666666,30.66532055195421L69.72333333333333,30.72123641850936L69.81,30.777245946482516L70.24333333333334,31.058717239902116L70.28666666666666,31.086993622000925L70.41666666666666,31.171963260424423L70.46000000000001,31.200342670083046L70.59,31.285593292760584L70.72,31.371059336699545L70.80666666666666,31.428155337121694L71.02333333333334,31.571307448416274L71.32666666666667,31.772698229432798L71.54333333333334,31.91724589585582L71.58666666666666,31.946234104731555L72.10666666666667,32.29579724904828L72.54,32.5896505819295L72.62666666666667,32.648694739846356L72.67,32.67825428337198L72.97333333333333,32.8857986195521L73.19,33.034729640338234L73.36333333333333,33.154288440434776L73.40666666666667,33.184241361916065L73.92666666666666,33.54536232521589L74.27333333333334,33.787917299450136L74.44666666666666,33.909733339720844L74.66333333333334,34.062513844787404L74.75,34.123777778311215L74.92333333333333,34.246586629612885L75.57333333333334,34.71027621178127L75.66,34.77247675948523L75.87666666666667,34.928366823629915L75.92,34.959612272679806L76.00666666666666,35.02216873377225L76.13666666666667,35.11615796675059L76.31,35.241795392876334L76.57,35.43090716199103L76.74333333333334,35.55741563930432L76.96,35.716040616855025L77.22,35.90710990960626L77.35,36.00293490637772L77.56666666666666,36.16307719890028L77.69666666666667,36.259426699612646L77.91333333333334,36.42043067718095L77.95666666666666,36.45268766954541L78.08666666666667,36.54960850490767L78.25999999999999,36.67914224602282L78.64999999999999,36.971824811178855L78.95333333333333,37.20065838767386L79.08333333333333,37.29904034115713L79.12666666666667,37.331878034313306L79.51666666666667,37.62836325304075L79.95,37.95977481454611L80.08,38.059599153866834L80.34,38.25981916715815L80.6,38.46077910565179L80.77333333333333,38.595164508220165L81.25,38.966419636949226L81.29333333333332,39.00028760570357L81.46666666666667,39.13598426812413L81.72666666666667,39.340128694830305L81.9,39.476640211587615L82.03,39.579227562739774L83.07000000000001,40.406426474367365L83.89333333333333,41.06937135722151L83.98,41.13957059002398L84.02333333333333,41.17469362177971L84.06666666666666,41.20984475196086L84.45666666666666,41.527029144069694L84.80333333333333,41.810289370573386L84.84666666666666,41.8457870480012L84.93333333333334,41.91682923356581L84.97666666666666,41.952383107844405L85.54,42.41628811127423L85.62666666666667,42.487939096055925L86.10333333333334,42.88339633520017L86.23333333333333,42.99164083600044L86.40666666666667,43.136225966990686L86.58,43.281110814518556L86.75333333333333,43.42629537858408L87.05666666666666,43.68108253401112L87.10000000000001,43.71755429018628L87.14333333333333,43.75404477864504L87.23,43.82708195241339L87.36,43.93676883905111L87.88000000000001,44.37718355884268L88.14,44.59836499748583L88.27000000000001,44.70920391956515L88.31333333333333,44.74618144739758L88.74666666666667,45.11698700132019L88.87666666666667,45.228575214743614L89.35333333333334,45.63910257604651L89.48333333333333,45.751430714672274L89.61333333333333,45.86392744385045L89.83,46.051756051538355L89.96,46.1646648909558L90.35,46.50433738953012L90.82666666666667,46.92138358552687L91.04333333333334,47.11163802394136L91.13,47.18785968592222L92.17,48.10776466910135L92.51666666666667,48.41652889973062L92.60333333333334,48.493893231011256L92.73333333333333,48.61005212163384L92.99333333333334,48.84281011154368L93.03666666666666,48.881660867736436L93.34,49.15407510203394L93.68666666666667,49.466370368122384L93.86,49.62290669605136L94.03333333333335,49.779695909808986L94.20666666666666,49.936738009395256L94.33666666666667,50.054685833101935L94.42333333333335,50.133398888802L94.68333333333334,50.36991270157425L95.07333333333332,50.725741794756196L95.42,51.043094777417465L95.50666666666667,51.122585222887054L95.63666666666667,51.24193796786396L95.72333333333333,51.32158763774417L95.76666666666667,51.36143120496789L95.81,51.4012935044752L96.11333333333333,51.68074171126567L96.28666666666668,51.840762243944816L96.33,51.88080250014636L96.63333333333333,52.16152450222183L96.98,52.483242106962614L97.02333333333333,52.52351651670921L97.19666666666667,52.68479211238976L97.28333333333333,52.76551888857715L97.67333333333333,53.12950589126824L98.15,53.5759805048054L98.58333333333333,53.983370208604775L98.67,54.06502423283052L98.97333333333333,54.35123479400169L99.01666666666668,54.392183565957986L99.19,54.556100413626574L99.32000000000001,54.679190249182284L99.49333333333333,54.84349110866475L99.66666666666667,55.00802612169224L100.49000000000001,55.79252479284663L100.66333333333333,55.95830550273373L100.96666666666665,56.24893688283522L101.22666666666666,56.498572660271414L101.31333333333333,56.581884491596036L101.70333333333333,56.95744804555382L101.87666666666667,57.124708605845555L102.26666666666667,57.50178947477518L102.48333333333333,57.71172217711467L102.52666666666666,57.75374805537815L102.57000000000001,57.79578329978342L103.26333333333334,58.47008931264281L103.48,58.68146440081976L103.78333333333333,58.977902788838215L103.95666666666666,59.147561081431135L104.08666666666666,59.27493124379016L104.34666666666666,59.529999383471235L104.39,59.57254976567559L104.43333333333334,59.61511888016354L104.56333333333333,59.74288242047823L104.78,59.95606517402287L105.04,60.21226661686193L105.08333333333333,60.25500432190232L105.51666666666667,60.68304636837407L105.56,60.72591519939969L105.73333333333333,60.89750291720372L105.77666666666667,60.94042794508013L105.94999999999999,61.112240450287416L106.03666666666666,61.19821226588367L106.29666666666667,61.45639933078466L106.42666666666666,61.585652087645784L106.6,61.75812958892096L106.64333333333333,61.80127940420061L106.72999999999999,61.887607133185334L106.77333333333334,61.93078504689038L106.86,62.01717833886771L107.33666666666666,62.493128200654276L107.42333333333333,62.57980247688565L107.77,62.92692105819218L107.81333333333333,62.97036122386768L107.94333333333334,63.10073791774499L109.46,64.62861789754508L109.89333333333335,65.0673935425214L110.36999999999999,65.55116413271224L110.67333333333335,65.85960991452026L110.71666666666667,65.90371507626365L111.23666666666666,66.43365137939426L111.36666666666667,66.56634151029657L111.75666666666667,66.9648895762353L112.19,67.40857307951559L112.53666666666668,67.76413992072712L112.58,67.80861972814257L112.66666666666667,67.89761680754071L112.79666666666667,68.03116862348874L113.05666666666667,68.29850640892982L113.27333333333333,68.52151424522428L113.31666666666668,68.56614391090858L113.49,68.74472813663836L113.53333333333333,68.78939526688985L113.83666666666667,69.1022993321954L114.22666666666667,69.50516518950462L114.35666666666667,69.63959742278199L114.79,70.0881981505081L115.22333333333333,70.53755753572015L115.65666666666667,70.98765684613451L116.43666666666667,71.79964514347641L116.74000000000001,72.11601468124852L117.04333333333334,72.43272140012547L117.13000000000001,72.52327325906266L117.39,72.79506932800129L117.47666666666666,72.8857242144983L117.60666666666665,73.02174869188192L117.65,73.06709955048494L117.91,73.33936392651364L118.08333333333333,73.52099214832892L118.56,74.02098489612003L118.69,74.15747768059373L118.90666666666667,74.38507492637093L119.47,74.97749276145954L120.51,76.07364043491809L121.33333333333333,76.94352085473525L121.55000000000001,77.17271971076049L121.59333333333333,77.21857634102079L122.02666666666667,77.67738616331059L122.15666666666667,77.81511527850209L122.37333333333333,78.0447449770502L122.72,78.4123847750439L122.85,78.55031994535504L123.15333333333334,78.87230916820805L123.32666666666667,79.05639131917535L123.58666666666666,79.3326269393279L123.89,79.65507510312918L124.49666666666667,80.30049593467265L124.97333333333334,80.80807525732301L125.19,81.03893192044713L125.36333333333334,81.22366033519872L125.40666666666667,81.26985414656389L125.53666666666666,81.40844494680113L125.58,81.45464812430806L126.88,82.8419891463762L127.00999999999999,82.9808515647257L127.18333333333334,83.16602018814196L127.22666666666667,83.21232639320873L127.44333333333333,83.44384805240075L127.48666666666666,83.49016362360932L128.00666666666666,84.04606287181377L128.35333333333332,84.41681222888558L128.44,84.50951830043711L128.48333333333332,84.5558713362129L129.35,85.48328796511686L129.69666666666666,85.8543932355771L129.91333333333333,86.08637383571742L130,86.17917356868699L130.13,86.31838253428313L130.21666666666667,86.41119163339451L130.26,86.45759149987929L130.56333333333333,86.78245612826537L130.73666666666668,86.96810242491352L130.78,87.01452102368191L130.82333333333332,87.06093962245028L130.91,87.15376745384525L130.99666666666667,87.24660465138203L131.21333333333334,87.47869764522396L131.3,87.57153484276074L131.64666666666665,87.94291173133321L132.81666666666666,89.19635439020666L132.86,89.24278235511686L132.94666666666666,89.33561955265364L133.33666666666667,89.75339630771091L133.38,89.79981490647927L133.68333333333334,90.1247169994326L133.81333333333333,90.26395406345412L133.85666666666668,90.31036329608074L133.98666666666665,90.44959099396048L134.29,90.77442752392116L134.37666666666667,90.86722725689074L134.59333333333333,91.09920785703103L135.11333333333334,91.6558657627214L135.15666666666667,91.70224689692259L135.50333333333333,92.07323040753941L135.54666666666665,92.1196021755988L135.85,92.44412962288003L135.98000000000002,92.58318873020737L136.02333333333334,92.62953239984132L136.06666666666666,92.67588543561712L136.1966666666667,92.81491644451901L137.02,93.69507152189247L137.36666666666667,94.0654368671504L137.41,94.11172433993355L137.54000000000002,94.25056802599944L137.84333333333333,94.57445857563819L137.97333333333333,94.71322733256966L138.06,94.80572734900157L138.19,94.94445864136584L138.36333333333334,95.12940247737887L138.75333333333333,95.54535283478484L139.01333333333332,95.82252506911755L139.18666666666667,96.00724411772734L139.23,96.05341919680889L139.40333333333334,96.23808204856786L139.44666666666666,96.2842383953658L139.48999999999998,96.33039474216375L139.70666666666668,96.56111091316085L139.92333333333335,96.79175215502354L139.96666666666667,96.83787103725429L140.14000000000001,97.02229973546824L140.35666666666668,97.25276302063669L140.4,97.29884443830021L140.44333333333333,97.34492585596375L140.57333333333332,97.48314201052895L140.96333333333334,97.89758441910486L141.00666666666666,97.9436096399176L141.04999999999998,97.98963486073032L141.26666666666668,98.2197047679431L141.48333333333335,98.4496810137379L141.61333333333332,98.58761150097813L141.74333333333334,98.72550920672208L141.82999999999998,98.81741915622048L141.91666666666666,98.9093150565062L142.04666666666668,99.04711910083212L142.35,99.36851825675166L142.87,99.9189757765694L142.95666666666665,100.0106515725228L143.52,100.6060899883424L143.56333333333333,100.6518576402556L144.04000000000002,101.15497867940842L144.47333333333333,101.61181224577807L144.56,101.70311807913028L144.64666666666668,101.7943958140571L144.90666666666667,102.06811194206504L145.21,102.38718829481779L145.25333333333333,102.43274989161134L145.47,102.66045953109014L145.64333333333335,102.8425279615701L145.68666666666667,102.88802867844194L145.86,103.06997534907848L146.42333333333335,103.66063703257929L146.51,103.75141367891973L146.55333333333334,103.79679263594814L146.94333333333336,104.20492694802076L147.03,104.29555373609236L147.11666666666665,104.38615242573857L147.46333333333334,104.74828961542383L147.81,105.11000064565717L147.94,105.2455287175253L147.98333333333335,105.29069225329228L148.11333333333334,105.42613602988422L148.2,105.51639753842558L148.24333333333334,105.56151892655446L148.37333333333333,105.69684094330296L148.63333333333333,105.96728828782216L148.80666666666667,106.1474460253746L148.85,106.19246438594367L149.45666666666665,106.82198619177903L149.58666666666667,106.95669472623955L149.71666666666667,107.09133301463656L150.01999999999998,107.40522052483126L150.15,107.53962934275411L150.23666666666665,107.62919775680214L150.49666666666667,107.89770630996844L150.71333333333334,108.12124333327468L150.97333333333333,108.38922269942917L151.06,108.47848203079775L151.36333333333334,108.79063680475916L151.49333333333334,108.92429164826702L151.57999999999998,109.01335429065777L151.62333333333333,109.05787624571136L151.75333333333333,109.19137654787946L152.1,109.54701363515447L152.49,109.94644211842254L152.70666666666668,110.16804035037588L152.92333333333332,110.38941379492596L153.14,110.6105624520728L153.70333333333332,111.18447747403249L153.79000000000002,111.27263628373939L154.22333333333333,111.71285431455314L154.52666666666667,112.02043841131538L154.65666666666667,112.15211699890311L154.87333333333333,112.37138306154786L155.26333333333332,112.76544474556364L155.30666666666667,112.80917994470589L155.5666666666667,113.07138040136884L155.82666666666668,113.33321557850152L155.95666666666668,113.4639950164763L156.13,113.63822866933927L156.17333333333335,113.68175781336188L156.21666666666667,113.72528227431363L156.3033333333333,113.81229373164982L156.47666666666666,113.98619020340794L156.60666666666668,114.11650601736355L156.65,114.15992276768453L156.82333333333332,114.33348205833781L156.86666666666667,114.37684729487889L156.91,114.4202031652782L157.12666666666667,114.63680924365127L157.21333333333334,114.72337580925192L157.64666666666665,115.15556237347087L157.95000000000002,115.45744717294689L158.25333333333333,115.75878405312754L158.38333333333333,115.88776050880551L159.16333333333333,116.65947907947174L159.38,116.87318633695727L159.77,117.25711853861472L159.9,117.3848820789294L159.98666666666665,117.4700015756217L160.29000000000002,117.76753580223091L160.46333333333334,117.93729243931277L160.50666666666666,117.97970232939011L160.85333333333335,118.31853655827317L161.02666666666664,118.4876562977125L161.07000000000002,118.52990696337922L161.2,118.6565840312449L161.28666666666666,118.74097296887672L161.59,119.03594087263232L161.76333333333332,119.2042176593095L161.93666666666667,119.37229307393797L162.11,119.5401624334468L162.19666666666666,119.62402218406683L162.45666666666668,119.87529235324739L163.14999999999998,120.5430701652711L163.28,120.6679021032019L163.41,120.7926216474311L163.54,120.91721474874595L163.58333333333334,120.95872080613944L163.8,121.16604972105812L164.40666666666667,121.744769573762L164.53666666666666,121.86843542703852L164.58,121.90962771868163L164.92666666666665,122.23868837859482L165.27333333333334,122.56685925503686L165.83666666666667,123.09821921172127L166.14000000000001,123.3833433004435L166.4,123.62718143610454L166.61666666666667,123.82997713839129L167.09333333333333,124.27485014168039L167.44,124.59727957319807L167.48333333333332,124.63751651837744L167.70000000000002,124.83847645687109L167.78666666666666,124.91875834132291L167.87333333333333,124.99897934585303L168.00333333333333,125.11919845894657L168.09,125.19926492213696L168.30666666666667,125.39917585274883L168.35,125.43911308139056L168.6966666666667,125.75806299122898L168.74,125.79785972774367L168.87,125.91716564201157L169.17333333333332,126.19500755548307L169.30333333333334,126.31385452880271L169.34666666666666,126.35343584405597L169.39,126.39300311009653L169.78,126.74841072689742L169.95333333333332,126.90596328121185L170.12666666666667,127.06325826662678L170.43,127.33792037495665L170.47333333333333,127.37709426304156L170.69,127.57272018377923L171.34,128.15718616447836L171.38333333333333,128.19602287145838L171.55666666666667,128.35119642575526L171.64333333333335,128.42868719995022L171.94666666666666,128.69938274722716L172.12,128.85369929954916L172.51,129.19994682966816L172.5533333333333,129.23833396184176L172.5966666666667,129.2767070448026L172.64000000000001,129.3150613954799L172.68333333333334,129.35340169694445L172.85666666666668,129.50658494610846L172.94333333333333,129.58307354313067L173.03,129.65949657716027L173.16,129.77400702682579L173.29,129.88836293515158L173.33333333333331,129.9264456677166L173.46333333333334,130.04060020399365L173.94,130.45783840589732L174.20000000000002,130.68454118513247L174.46,130.91062111593783L174.85,131.24856556134975L174.89333333333332,131.2860301285559L175.10999999999999,131.47307198033243L175.24,131.58509103627875L175.5,131.8086421087977L175.67333333333332,131.9573202437552L175.84666666666666,132.10570802831683L176.19333333333333,132.4016359616071L176.32333333333335,132.51230629313397L176.58333333333334,132.733164599885L176.62666666666667,132.7699126572433L176.97333333333333,133.06322743697092L177.10333333333335,133.17291900667954L177.14666666666668,133.2094422766346L177.27666666666664,133.3189137420109L177.66666666666666,133.6463306440379L178.23,134.11660462389275L178.27333333333334,134.15265022061595L178.31666666666666,134.18867708505556L178.36,134.22468053414062L178.49,134.33258785383606L178.96666666666667,134.7267947130498L180.00666666666666,135.57887478037313L180.13666666666666,135.68460447209972L180.22333333333336,135.7549910277382L180.31,135.8253073373132L180.44,135.93062960187143L180.52666666666667,136.0007445393977L180.61333333333334,136.07078454778954L180.74333333333334,136.1756947021085L180.78666666666666,136.21062572795728L181.56666666666666,136.8360264314L182,137.1806957666254L182.30333333333334,137.42077339635316L182.47666666666666,137.5575190666555L182.51999999999998,137.5916539704512L182.73666666666665,137.76203345596284L182.78,137.7960465999151L182.91,137.89796895499933L183.38666666666668,138.27011855027047L183.43,138.30382729461417L183.95000000000002,138.70673764109696L183.99333333333334,138.74017945039935L184.07999999999998,138.80700218908234L184.12333333333333,138.84038077692756L184.25333333333333,138.9403971221552L184.29666666666665,138.97369375625965L184.34,139.0069716580805L184.64333333333332,139.2393245623574L184.73000000000002,139.30552211107516L184.81666666666666,139.37163770605218L185.33666666666667,139.7665704412555L185.46666666666667,139.86483063489538L185.51000000000002,139.89754188513723L185.55333333333334,139.93023206156002L185.59666666666666,139.96290116416375L185.77,140.09336449485272L185.9,140.19099013238554L186.55,140.67623823144558L186.63666666666666,140.74057660101573L186.89666666666668,140.93306954732083L186.98333333333332,140.9970613696443L187.15666666666667,141.12478510385634L187.33,141.25216463235714L187.37333333333333,141.28395565916702L188.0233333333333,141.75820322468115L188.41333333333333,142.04039102794857L188.5,142.10285616915843L188.58666666666667,142.16523467355663L188.71666666666667,142.25863618113692L188.8033333333333,142.3207945812028L188.93333333333334,142.4138659322846L189.32333333333332,142.691878777844L189.45333333333335,142.78414932380176L189.58333333333331,142.87621849771082L190.53666666666666,143.545225615846L190.75333333333333,143.69575122227386L191.01333333333335,143.87563265864313L191.14333333333332,143.96526663568378L191.31666666666666,144.08445781471463L191.57666666666668,144.26255968414162L191.70666666666665,144.35130153617567L191.79333333333335,144.41034803562798L191.88,144.4693032151977L192.01000000000002,144.55756271092898L192.09666666666666,144.61628607848914L192.22666666666666,144.70419902697375L192.96333333333334,145.19843862216328L193.00666666666666,145.2273003881247L193.13666666666666,145.31375221848828L193.48333333333332,145.54326015719298L193.52666666666664,145.5718432804358L193.91666666666666,145.8280330155976L193.96,145.8563819852954L194.17666666666668,145.99776623732495L194.22,146.02597237336025L194.26333333333332,146.05415509404108L194.39333333333335,146.13856276395646L194.65333333333334,146.3067341815384L194.87,146.4462241313886L195,146.52963196566668L195.34666666666666,146.75100306868129L195.52,146.86111377323553L195.60666666666665,146.9160274626179L195.99666666666667,147.161940198688L196.21333333333334,147.29771413177843L196.47333333333336,147.45984672943385L196.51666666666668,147.48678375325505L196.73333333333335,147.62110593436626L197.03666666666666,147.80813607846557L197.34,147.9939720394852L197.6,148.15230666664004L197.73,148.23114382371898L197.81666666666666,148.28357782705942L197.86,148.30975853493013L198.16333333333333,148.4923327370674L198.51,148.6995094521818L198.55333333333334,148.72529678209685L198.64000000000001,148.7767941712571L198.81333333333333,148.87949157457544L198.98666666666665,148.98179091686723L199.20333333333332,149.10910722391088L199.72333333333333,149.412120643474L199.98333333333332,149.56227862883614L200.24333333333334,149.711530439979L200.37333333333333,149.78581799367782L200.63333333333333,149.93371171425943L201.1533333333333,150.22676658355206L201.32666666666665,150.32364292974077L201.63,150.49219367606565L201.76000000000002,150.56404837443154L202.23666666666668,150.82554871199483L202.67,151.06058501589789L202.7133333333333,151.08394651508635L202.84333333333333,151.15388115438293L203.10333333333332,151.29305031387642L203.32,151.40831473795697L203.97,151.7502280859573L204.01333333333332,151.77281453691168L204.36,151.95256953036667L204.57666666666668,152.06406876544298L204.83666666666667,152.19700709910302L204.92333333333335,152.24110991931096L204.96666666666667,152.26312269408L205.22666666666666,152.39464439879256L205.66,152.61174688268113L205.79,152.6763638949699L205.87666666666667,152.71930999666537L205.92000000000002,152.7407420706427L205.96333333333334,152.76215072926558L206.13666666666666,152.84751374564473L206.57,153.05907147358678L206.61333333333332,153.08008207118309L206.70000000000002,153.12202131263487L207.13333333333333,153.3301276173231L207.17666666666665,153.35079166767272L207.91333333333333,153.6979968857909L208.21666666666664,153.83871614175257L208.39,153.9185344021852L208.78,154.09655431787144L208.99666666666664,154.1945124534382L209.21333333333334,154.2917938852598L209.47333333333333,154.40763901013204L209.86333333333334,154.57957795825362L210.03666666666666,154.6552891655063L210.21,154.7305648471652L210.34,154.78673594108443L210.60000000000002,154.89834288679148L210.81666666666666,154.99059938353656L211.07666666666665,155.1004033469468L211.29333333333332,155.19115189486183L211.42333333333335,155.245274145262L211.46666666666667,155.26325947905636L211.77,155.3883911335248L212.11666666666665,155.52974728712897L212.46333333333334,155.669340264539L212.63666666666666,155.73847409871152L212.76666666666668,155.79003470932895L212.89666666666665,155.84134711718863L212.94,155.85839583680288L213.28666666666666,155.99378575807944L213.37333333333333,156.0273563518316L213.85,156.21000548310323L214.19666666666666,156.3407287242272L214.45666666666665,156.43759804580952L214.67333333333332,156.51755445683375L214.84666666666666,156.58101709214546L215.19333333333333,156.70660066295585L216.19,157.05764131614177L216.45000000000002,157.14676717998967L216.62333333333333,157.20562167353503L217.27333333333334,157.4222944856685L217.53333333333333,157.50718099958348L217.66333333333333,157.549240830111L217.75,157.57713905423455L218.05333333333334,157.6738877867412L218.1833333333333,157.7149255370446L218.35666666666665,157.76924330565487L218.53,157.82310564562002L218.57333333333332,157.83650039916392L218.61666666666667,157.8498658835147L218.70333333333332,157.87651255694007L218.9633333333333,157.95576650732917L219.26666666666668,158.04693067778663L219.35333333333332,158.07272034923716L219.44,158.0983952854506L219.61333333333334,158.14940212293402L219.7433333333333,158.18735724181698L219.7866666666667,158.19995119023687L219.87333333333333,158.22505479180043L220.22,158.32431833338077L220.5666666666667,158.4217449404003L220.65333333333334,158.4458147540625L221.26,158.61107798461506L221.39000000000001,158.64575729540294L221.51999999999998,158.68017669575585L221.95333333333335,158.79303285062568L222.12666666666667,158.8373663120755L222.25666666666666,158.8703128866301L222.90666666666667,159.0311389075042L223.12333333333333,159.0832989511969L223.16666666666666,159.0936438548167L223.34,159.13473311890002L223.51333333333335,159.17535875896417L223.55666666666667,159.1854414106135L223.6,159.19549596383743L223.68666666666667,159.21551843347368L223.90333333333334,159.26506415283603L223.94666666666666,159.27488572328267L223.99,159.28467919530388L224.38,159.3715045005718L224.72666666666666,159.44670291156083L224.9,159.4836019979557L224.98666666666665,159.5018765113782L225.24666666666664,159.55599876177837L225.59333333333333,159.6265269803116L225.63666666666666,159.63521173529708L225.89666666666668,159.68670327061872L226.02666666666664,159.71205507494003L226.37333333333333,159.77837087119804L226.41666666666666,159.78652760993944L226.63333333333335,159.8268757780527L226.76333333333332,159.85073368275664L226.80666666666664,159.8586269987599L226.93666666666667,159.88213250237857L227.06666666666666,159.90537341249134L227.19666666666666,159.92835089986593L227.71666666666667,160.01761491430543L227.89,160.0464286787901L228.19333333333336,160.09572151232385L228.45333333333335,160.13682482561987L228.58333333333334,160.15697959200904L228.62666666666667,160.1636377480622L228.67,160.17026780568995L228.8,160.189980021879L228.84333333333333,160.1964918319665L229.14666666666665,160.24124911133285L229.23333333333335,160.2537716429215L229.32,160.2661759269699L229.58,160.30268046464136L229.79666666666668,160.33229035117918L229.84,160.33812311598606L229.97,160.35544579524802L230.1,160.37250271023632L230.18666666666667,160.38372686041774L230.27333333333334,160.39483159229118L230.62,160.43807155668566L230.96666666666667,160.4794172189008L231.05333333333334,160.48945772291202L231.14000000000001,160.49938115015075L231.18333333333334,160.50429720382883L231.22666666666666,160.5091851590815L231.53,160.54256608846217L231.57333333333335,160.54721637786662L232.35333333333335,160.62585684596772L232.48333333333332,160.63802931800655L232.96,160.6803806696976L233.22,160.7019684557824L233.78333333333333,160.74507495265624L234.04333333333332,160.7632780492475L234.08666666666667,160.76620848086367L234.34666666666666,160.78316353905987L234.4333333333333,160.78857716902118L234.60666666666665,160.799049686323L235.08333333333334,160.82539430167526L235.17,160.8297975590897L235.2566666666667,160.8340825689639L235.43,160.8422943337884L235.51666666666668,160.84622225950642L235.73333333333332,160.8555216675476L235.90666666666667,160.86242451405533L236.12333333333333,160.87038573458665L237.38,160.90188758176836L237.46666666666667,160.90313796169886L237.85666666666668,160.90729067482013L237.9,160.90760209903502L237.94333333333333,160.9078854248245L238.29,160.90907609560102" style="fill: none;" fill="none"></path></g></g></g></g></g></g><g transform="translate(70, 177)" clip-path="url(#clip_1)"><clipPath id="clip_1"><rect width="260" height="23"></rect></clipPath><g><g><line x1="0" y1="0" x2="0" y2="5" style="visibility: inherit;" fill="rgb(0, 0, 0)" stroke="rgb(204, 204, 204)" stroke-width="1px"></line><line x1="21.666666666666664" y1="0" x2="21.666666666666664" y2="5" style="visibility: inherit;" fill="rgb(0, 0, 0)" stroke="rgb(204, 204, 204)" stroke-width="1px"></line><line x1="43.33333333333333" y1="0" x2="43.33333333333333" y2="5" style="visibility: inherit;" fill="rgb(0, 0, 0)" stroke="rgb(204, 204, 204)" stroke-width="1px"></line><line x1="65" y1="0" x2="65" y2="5" style="visibility: inherit;" fill="rgb(0, 0, 0)" stroke="rgb(204, 204, 204)" stroke-width="1px"></line><line x1="86.66666666666666" y1="0" x2="86.66666666666666" y2="5" style="visibility: inherit;" fill="rgb(0, 0, 0)" stroke="rgb(204, 204, 204)" stroke-width="1px"></line><line x1="108.33333333333334" y1="0" x2="108.33333333333334" y2="5" style="visibility: inherit;" fill="rgb(0, 0, 0)" stroke="rgb(204, 204, 204)" stroke-width="1px"></line><line x1="130" y1="0" x2="130" y2="5" style="visibility: inherit;" fill="rgb(0, 0, 0)" stroke="rgb(204, 204, 204)" stroke-width="1px"></line><line x1="151.66666666666669" y1="0" x2="151.66666666666669" y2="5" style="visibility: inherit;" fill="rgb(0, 0, 0)" stroke="rgb(204, 204, 204)" stroke-width="1px"></line><line x1="173.33333333333331" y1="0" x2="173.33333333333331" y2="5" style="visibility: inherit;" fill="rgb(0, 0, 0)" stroke="rgb(204, 204, 204)" stroke-width="1px"></line><line x1="195" y1="0" x2="195" y2="5" style="visibility: inherit;" fill="rgb(0, 0, 0)" stroke="rgb(204, 204, 204)" stroke-width="1px"></line><line x1="216.66666666666669" y1="0" x2="216.66666666666669" y2="5" style="visibility: inherit;" fill="rgb(0, 0, 0)" stroke="rgb(204, 204, 204)" stroke-width="1px"></line><line x1="238.33333333333331" y1="0" x2="238.33333333333331" y2="5" style="visibility: inherit;" fill="rgb(0, 0, 0)" stroke="rgb(204, 204, 204)" stroke-width="1px"></line><line x1="260" y1="0" x2="260" y2="5" style="visibility: inherit;" fill="rgb(0, 0, 0)" stroke="rgb(204, 204, 204)" stroke-width="1px"></line></g><g transform="translate(0, 8)"><text x="0" y="0" dx="0em" dy="0.95em" style="text-anchor: middle; visibility: hidden; font-family: Roboto, sans-serif; font-size: 12px; font-weight: 200;" fill="rgb(33, 33, 33)" stroke="none" stroke-width="1px">-500</text><text x="21.666666666666664" y="0" dx="0em" dy="0.95em" style="text-anchor: middle; visibility: inherit; font-family: Roboto, sans-serif; font-size: 12px; font-weight: 200;" fill="rgb(33, 33, 33)" stroke="none" stroke-width="1px">0</text><text x="43.33333333333333" y="0" dx="0em" dy="0.95em" style="text-anchor: middle; visibility: hidden; font-family: Roboto, sans-serif; font-size: 12px; font-weight: 200;" fill="rgb(33, 33, 33)" stroke="none" stroke-width="1px">500</text><text x="65" y="0" dx="0em" dy="0.95em" style="text-anchor: middle; visibility: inherit; font-family: Roboto, sans-serif; font-size: 12px; font-weight: 200;" fill="rgb(33, 33, 33)" stroke="none" stroke-width="1px">1k</text><text x="86.66666666666666" y="0" dx="0em" dy="0.95em" style="text-anchor: middle; visibility: hidden; font-family: Roboto, sans-serif; font-size: 12px; font-weight: 200;" fill="rgb(33, 33, 33)" stroke="none" stroke-width="1px">1.5k</text><text x="108.33333333333334" y="0" dx="0em" dy="0.95em" style="text-anchor: middle; visibility: inherit; font-family: Roboto, sans-serif; font-size: 12px; font-weight: 200;" fill="rgb(33, 33, 33)" stroke="none" stroke-width="1px">2k</text><text x="130" y="0" dx="0em" dy="0.95em" style="text-anchor: middle; visibility: hidden; font-family: Roboto, sans-serif; font-size: 12px; font-weight: 200;" fill="rgb(33, 33, 33)" stroke="none" stroke-width="1px">2.5k</text><text x="151.66666666666669" y="0" dx="0em" dy="0.95em" style="text-anchor: middle; visibility: inherit; font-family: Roboto, sans-serif; font-size: 12px; font-weight: 200;" fill="rgb(33, 33, 33)" stroke="none" stroke-width="1px">3k</text><text x="173.33333333333331" y="0" dx="0em" dy="0.95em" style="text-anchor: middle; visibility: hidden; font-family: Roboto, sans-serif; font-size: 12px; font-weight: 200;" fill="rgb(33, 33, 33)" stroke="none" stroke-width="1px">3.5k</text><text x="195" y="0" dx="0em" dy="0.95em" style="text-anchor: middle; visibility: inherit; font-family: Roboto, sans-serif; font-size: 12px; font-weight: 200;" fill="rgb(33, 33, 33)" stroke="none" stroke-width="1px">4k</text><text x="216.66666666666669" y="0" dx="0em" dy="0.95em" style="text-anchor: middle; visibility: hidden; font-family: Roboto, sans-serif; font-size: 12px; font-weight: 200;" fill="rgb(33, 33, 33)" stroke="none" stroke-width="1px">4.5k</text><text x="238.33333333333331" y="0" dx="0em" dy="0.95em" style="text-anchor: middle; visibility: inherit; font-family: Roboto, sans-serif; font-size: 12px; font-weight: 200;" fill="rgb(33, 33, 33)" stroke="none" stroke-width="1px">5k</text><text x="260" y="0" dx="0em" dy="0.95em" style="text-anchor: middle; visibility: hidden; font-family: Roboto, sans-serif; font-size: 12px; font-weight: 200;" fill="rgb(33, 33, 33)" stroke="none" stroke-width="1px">5.5k</text></g><line x1="0" y1="0" x2="260" y2="0" fill="rgb(0, 0, 0)" stroke="rgb(204, 204, 204)" stroke-width="1px"></line></g></g></g></g></svg>