<svg viewBox="0 0 330 200" xmlns="http://www.w3.org/2000/svg"><g><g><g><g><g><line x1="40" y1="177" x2="35" y2="177" style="visibility: inherit;" fill="rgb(0, 0, 0)" stroke="rgb(204, 204, 204)" stroke-width="1px"></line><line x1="40" y1="159.29999999999998" x2="35" y2="159.29999999999998" style="visibility: inherit;" fill="rgb(0, 0, 0)" stroke="rgb(204, 204, 204)" stroke-width="1px"></line><line x1="40" y1="141.6" x2="35" y2="141.6" style="visibility: inherit;" fill="rgb(0, 0, 0)" stroke="rgb(204, 204, 204)" stroke-width="1px"></line><line x1="40" y1="123.89999999999999" x2="35" y2="123.89999999999999" style="visibility: inherit;" fill="rgb(0, 0, 0)" stroke="rgb(204, 204, 204)" stroke-width="1px"></line><line x1="40" y1="106.2" x2="35" y2="106.2" style="visibility: inherit;" fill="rgb(0, 0, 0)" stroke="rgb(204, 204, 204)" stroke-width="1px"></line><line x1="40" y1="88.49999999999999" x2="35" y2="88.49999999999999" style="visibility: inherit;" fill="rgb(0, 0, 0)" stroke="rgb(204, 204, 204)" stroke-width="1px"></line><line x1="40" y1="70.80000000000004" x2="35" y2="70.80000000000004" style="visibility: inherit;" fill="rgb(0, 0, 0)" stroke="rgb(204, 204, 204)" stroke-width="1px"></line><line x1="40" y1="53.10000000000003" x2="35" y2="53.10000000000003" style="visibility: inherit;" fill="rgb(0, 0, 0)" stroke="rgb(204, 204, 204)" stroke-width="1px"></line><line x1="40" y1="35.400000000000034" x2="35" y2="35.400000000000034" style="visibility: inherit;" fill="rgb(0, 0, 0)" stroke="rgb(204, 204, 204)" stroke-width="1px"></line><line x1="40" y1="17.700000000000017" x2="35" y2="17.700000000000017" style="visibility: inherit;" fill="rgb(0, 0, 0)" stroke="rgb(204, 204, 204)" stroke-width="1px"></line><line x1="40" y1="0" x2="35" y2="0" style="visibility: inherit;" fill="rgb(0, 0, 0)" stroke="rgb(204, 204, 204)" stroke-width="1px"></line></g><g transform="translate(30, 0)"><text x="0" y="177" dx="0em" dy="0.3em" style="text-anchor: end; visibility: hidden; font-family: Roboto, sans-serif; font-size: 12px; font-weight: 200;" fill="rgb(33, 33, 33)" stroke="none" stroke-width="1px">3.4</text><text x="0" y="159.29999999999998" dx="0em" dy="0.3em" style="text-anchor: end; visibility: inherit; font-family: Roboto, sans-serif; font-size: 12px; font-weight: 200;" fill="rgb(33, 33, 33)" stroke="none" stroke-width="1px">3.6</text><text x="0" y="141.6" dx="0em" dy="0.3em" style="text-anchor: end; visibility: hidden; font-family: Roboto, sans-serif; font-size: 12px; font-weight: 200;" fill="rgb(33, 33, 33)" stroke="none" stroke-width="1px">3.8</text><text x="0" y="123.89999999999999" dx="0em" dy="0.3em" style="text-anchor: end; visibility: inherit; font-family: Roboto, sans-serif; font-size: 12px; font-weight: 200;" fill="rgb(33, 33, 33)" stroke="none" stroke-width="1px">4</text><text x="0" y="106.2" dx="0em" dy="0.3em" style="text-anchor: end; visibility: hidden; font-family: Roboto, sans-serif; font-size: 12px; font-weight: 200;" fill="rgb(33, 33, 33)" stroke="none" stroke-width="1px">4.2</text><text x="0" y="88.49999999999999" dx="0em" dy="0.3em" style="text-anchor: end; visibility: inherit; font-family: Roboto, sans-serif; font-size: 12px; font-weight: 200;" fill="rgb(33, 33, 33)" stroke="none" stroke-width="1px">4.4</text><text x="0" y="70.80000000000004" dx="0em" dy="0.3em" style="text-anchor: end; visibility: hidden; font-family: Roboto, sans-serif; font-size: 12px; font-weight: 200;" fill="rgb(33, 33, 33)" stroke="none" stroke-width="1px">4.6</text><text x="0" y="53.10000000000003" dx="0em" dy="0.3em" style="text-anchor: end; visibility: inherit; font-family: Roboto, sans-serif; font-size: 12px; font-weight: 200;" fill="rgb(33, 33, 33)" stroke="none" stroke-width="1px">4.8</text><text x="0" y="35.400000000000034" dx="0em" dy="0.3em" style="text-anchor: end; visibility: hidden; font-family: Roboto, sans-serif; font-size: 12px; font-weight: 200;" fill="rgb(33, 33, 33)" stroke="none" stroke-width="1px">5</text><text x="0" y="17.700000000000017" dx="0em" dy="0.3em" style="text-anchor: end; visibility: inherit; font-family: Roboto, sans-serif; font-size: 12px; font-weight: 200;" fill="rgb(33, 33, 33)" stroke="none" stroke-width="1px">5.2</text><text x="0" y="0" dx="0em" dy="0.3em" style="text-anchor: end; visibility: hidden; font-family: Roboto, sans-serif; font-size: 12px; font-weight: 200;" fill="rgb(33, 33, 33)" stroke="none" stroke-width="1px">5.4</text></g><line x1="40" y1="0" x2="40" y2="177" fill="rgb(0, 0, 0)" stroke="rgb(204, 204, 204)" stroke-width="1px"></line></g></g><g transform="translate(40, 0)" clip-path="url(#clip_0)"><clipPath id="clip_0"><rect width="290" height="177"></rect></clipPath><g><g><g><line x1="0" y1="0" x2="0" y2="177" fill="rgb(0, 0, 0)" stroke="rgb(66, 66, 66)" stroke-width="1px" opacity="0.25"></line><line x1="24.166666666666664" y1="0" x2="24.166666666666664" y2="177" fill="rgb(0, 0, 0)" stroke="rgb(66, 66, 66)" stroke-width="1px" opacity="0.25"></line><line x1="48.33333333333333" y1="0" x2="48.33333333333333" y2="177" fill="rgb(0, 0, 0)" stroke="rgb(66, 66, 66)" stroke-width="1px" opacity="0.25"></line><line x1="72.5" y1="0" x2="72.5" y2="177" fill="rgb(0, 0, 0)" stroke="rgb(66, 66, 66)" stroke-width="1px" opacity="0.25"></line><line x1="96.66666666666666" y1="0" x2="96.66666666666666" y2="177" fill="rgb(0, 0, 0)" stroke="rgb(66, 66, 66)" stroke-width="1px" opacity="0.25"></line><line x1="120.83333333333334" y1="0" x2="120.83333333333334" y2="177" fill="rgb(0, 0, 0)" stroke="rgb(66, 66, 66)" stroke-width="1px" opacity="0.25"></line><line x1="145" y1="0" x2="145" y2="177" fill="rgb(0, 0, 0)" stroke="rgb(66, 66, 66)" stroke-width="1px" opacity="0.25"></line><line x1="169.16666666666669" y1="0" x2="169.16666666666669" y2="177" fill="rgb(0, 0, 0)" stroke="rgb(66, 66, 66)" stroke-width="1px" opacity="0.25"></line><line x1="193.33333333333331" y1="0" x2="193.33333333333331" y2="177" fill="rgb(0, 0, 0)" stroke="rgb(66, 66, 66)" stroke-width="1px" opacity="0.25"></line><line x1="217.5" y1="0" x2="217.5" y2="177" fill="rgb(0, 0, 0)" stroke="rgb(66, 66, 66)" stroke-width="1px" opacity="0.25"></line><line x1="241.66666666666669" y1="0" x2="241.66666666666669" y2="177" fill="rgb(0, 0, 0)" stroke="rgb(66, 66, 66)" stroke-width="1px" opacity="0.25"></line><line x1="265.8333333333333" y1="0" x2="265.8333333333333" y2="177" fill="rgb(0, 0, 0)" stroke="rgb(66, 66, 66)" stroke-width="1px" opacity="0.25"></line><line x1="290" y1="0" x2="290" y2="177" fill="rgb(0, 0, 0)" stroke="rgb(66, 66, 66)" stroke-width="1px" opacity="0.25"></line></g><g><line x1="0" y1="177" x2="290" y2="177" fill="rgb(0, 0, 0)" stroke="rgb(66, 66, 66)" stroke-width="1px" opacity="0.25"></line><line x1="0" y1="159.29999999999998" x2="290" y2="159.29999999999998" fill="rgb(0, 0, 0)" stroke="rgb(66, 66, 66)" stroke-width="1px" opacity="0.25"></line><line x1="0" y1="141.6" x2="290" y2="141.6" fill="rgb(0, 0, 0)" stroke="rgb(66, 66, 66)" stroke-width="1px" opacity="0.25"></line><line x1="0" y1="123.89999999999999" x2="290" y2="123.89999999999999" fill="rgb(0, 0, 0)" stroke="rgb(66, 66, 66)" stroke-width="1px" opacity="0.25"></line><line x1="0" y1="106.2" x2="290" y2="106.2" fill="rgb(0, 0, 0)" stroke="rgb(66, 66, 66)" stroke-width="1px" opacity="0.25"></line><line x1="0" y1="88.49999999999999" x2="290" y2="88.49999999999999" fill="rgb(0, 0, 0)" stroke="rgb(66, 66, 66)" stroke-width="1px" opacity="0.25"></line><line x1="0" y1="70.80000000000004" x2="290" y2="70.80000000000004" fill="rgb(0, 0, 0)" stroke="rgb(66, 66, 66)" stroke-width="1px" opacity="0.25"></line><line x1="0" y1="53.10000000000003" x2="290" y2="53.10000000000003" fill="rgb(0, 0, 0)" stroke="rgb(66, 66, 66)" stroke-width="1px" opacity="0.25"></line><line x1="0" y1="35.400000000000034" x2="290" y2="35.400000000000034" fill="rgb(0, 0, 0)" stroke="rgb(66, 66, 66)" stroke-width="1px" opacity="0.25"></line><line x1="0" y1="17.700000000000017" x2="290" y2="17.700000000000017" fill="rgb(0, 0, 0)" stroke="rgb(66, 66, 66)" stroke-width="1px" opacity="0.25"></line><line x1="0" y1="0" x2="290" y2="0" fill="rgb(0, 0, 0)" stroke="rgb(66, 66, 66)" stroke-width="1px" opacity="0.25"></line></g></g></g><g><g><line x1="0" y1="477.89999999999986" x2="290" y2="477.89999999999986" fill="rgb(0, 0, 0)" stroke="rgb(153, 153, 153)" stroke-width="1.5px"></line></g></g><g><g><line x1="24.166666666666664" y1="0" x2="24.166666666666664" y2="177" fill="rgb(0, 0, 0)" stroke="rgb(153, 153, 153)" stroke-width="1.5px"></line></g></g><g><g><g><g><g><path stroke="rgb(255, 112, 67)" stroke-width="2px" d="M32.721666666666664,-1.4279942369604743L33.06,0.9295635892683065L33.108333333333334,-0.8741817459466015L33.39833333333333,0.47345214956488757L33.446666666666665,1.0233965842907504L33.97833333333333,8.695570963443108L34.074999999999996,9.904334231553488L34.461666666666666,15.236930334889301L34.55833333333334,19.093864095455828L34.99333333333333,18.32522348656414L35.235,23.26700085221633L35.96,27.894632598287895L36.00833333333333,28.481381533461107L36.63666666666666,28.01258853311333L36.685,32.57696321508572L36.733333333333334,32.21371271909038L37.265,35.30666320503276L37.410000000000004,35.66422907460053L37.60333333333334,37.12058216064176L37.79666666666667,41.84962529736188L37.94166666666666,41.44615190266032L38.086666666666666,44.418043486109205L38.18333333333333,41.03219087590621L38.425000000000004,46.46450768273978L38.52166666666667,45.67795584179115L38.57,42.804839701516336L39.05333333333333,41.4516893548149L39.24666666666667,44.16610606207722L39.440000000000005,46.979987772073L39.53666666666667,50.063586764195875L39.585,52.82700671473701L39.730000000000004,47.04244851660463L40.455000000000005,48.2053001951678L40.84166666666667,47.62379147955797L40.88999999999999,49.067073368722404L41.47,48.20694072228325L41.76,53.7065175103048L41.80833333333333,48.7470817021668L41.85666666666667,50.71345570159795L42.43666666666667,50.706512332396784L42.82333333333333,52.89734171416589L43.01666666666667,55.189885474361354L43.11333333333334,61.303857107828506L43.355,61.15537712327866L43.59666666666667,57.92253445954463L43.693333333333335,59.68654494864548L44.225,53.67549113621003L44.515,59.66883882158808L44.56333333333333,60.195483075820256L45.24,60.85739219381981L45.288333333333334,57.82919024106611L45.385,60.52843814061138L45.626666666666665,55.87850541213783L45.723333333333336,57.726369261381855L46.013333333333335,60.7607788894402L46.20666666666666,63.604793692459275L46.44833333333334,59.787531710165545L46.641666666666666,58.657238073645765L46.78666666666666,65.61918535441089L46.88333333333333,66.5897884381409L47.07666666666667,63.28886438444825L47.125,60.24483396193727L47.36666666666667,59.77119862545341L47.415,63.634881002359435L47.705000000000005,64.40412774005699L48.04333333333333,66.39272818517186L48.81666666666667,66.13862797708218L48.913333333333334,70.34447483236136L48.961666666666666,72.28712404736605L49.010000000000005,72.44014777284104L49.155,71.2399809786155L49.251666666666665,70.18830636671031L49.928333333333335,67.59168899733328L49.97666666666667,65.16206730770178L50.07333333333333,67.91336488108105L50.169999999999995,70.29376607525505L50.266666666666666,73.19193715446092L50.459999999999994,71.57356956120074L50.55666666666667,75.00219519207323L50.75,76.81933646720319L50.84666666666667,74.77994450880092L51.04,73.74384652705788L51.33,73.38360884625789L51.42666666666667,78.07572477125574L51.62,73.95228697456983L52.39333333333333,73.10711395262517L52.44166666666667,73.42173026274949L52.58666666666667,66.46945171279492L52.68333333333334,73.80255454971062L52.876666666666665,72.71549322482151L52.973333333333336,72.79338548109654L53.553333333333335,70.47431635335522L53.795,76.04806700393817L53.843333333333334,75.00703611758506L54.23,75.96485338441819L54.278333333333336,73.73452074189359L54.52,77.08093610083684L54.568333333333335,75.09959407017013L54.76166666666666,75.4762095747315L54.955,79.9034002481653L55.245,75.52436909787376L55.29333333333334,63.904229708388584L55.535000000000004,66.80963382951929L55.63166666666667,69.2513046469242L55.97,71.91502597129052L56.06666666666666,73.51266796467131L56.405,72.12965464995757L56.791666666666664,74.66591140035665L56.84,70.46813553574016L57.22666666666667,72.38319699527226L57.61333333333333,65.59519058562158L57.71,71.5616358738949L58.483333333333334,76.40387649427716L59.01499999999999,79.40724323207657L59.11166666666667,87.5531856990726L59.208333333333336,87.68204975943995L59.25666666666667,78.3482926989867L59.35333333333333,79.89663217456783L59.40166666666667,83.42497563118724L59.498333333333335,80.62241354796278L59.54666666666667,83.12347898967859L59.595,84.39110624604108L59.836666666666666,76.86474994070936L60.12666666666667,81.88271263150935L61.093333333333334,83.81531174486025L61.48,81.15853152933802L61.625,79.00171677984648L61.67333333333333,79.50487905930193L61.769999999999996,79.88152122372813L61.86666666666667,88.6433184234764L61.96333333333334,86.8301770358363L62.25333333333334,84.19884928638217L63.026666666666664,85.280548776236L63.075,89.45005177321835L63.17166666666667,91.9129463700223L63.31666666666666,87.52048201726484L63.70333333333333,88.38654730896121L63.751666666666665,91.34074334967116L64.18666666666667,85.40024951856125L64.38,83.55028961515893L64.76666666666667,79.7327222348241L64.91166666666666,81.10253308302093L65.00833333333333,83.18299503139217L65.58833333333332,90.69222925073838L65.83,91.97687334756222L66.02333333333333,93.95794146382907L66.265,92.33512803747712L66.89333333333333,95.46396378537692L66.99000000000001,92.99706996357841L67.28,96.4354552655006L67.425,102.76030714443826L67.52166666666666,95.87677283723058L67.715,96.69508527063674L67.76333333333334,90.23114366497603L68.05333333333333,93.26415727595091L69.02,95.17430739199875L69.11666666666667,90.79730051872586L69.21333333333334,93.32176911662494L69.69666666666667,88.0512837256817L70.035,90.63345421825818L70.325,87.9118374769388L70.71166666666667,87.52405700352779L71.485,85.74661227981441L71.63,82.97956627917408L71.82333333333334,89.36871859974934L72.11333333333333,95.28856548754734L72.21,103.32684942894203L72.45166666666667,103.83859123237747L72.59666666666668,104.20399059681786L72.69333333333333,108.0496019806188L73.225,102.49227335725557L73.56333333333333,96.9621211783548L73.75666666666667,98.11426836588741L73.85333333333332,94.04201068841672L74.24,94.90356445290598L74.28833333333333,90.15909095751014L75.20666666666668,90.2239935263799L75.4,92.1113495841507L75.88333333333333,95.77767597287205L75.93166666666666,98.00176217704598L76.02833333333334,95.74307892411703L76.22166666666666,94.20466994815924L76.65666666666667,92.97980952962556L77.23666666666666,95.3065265792866L77.43,96.36061793197749L77.52666666666666,97.7212268306587L77.67166666666667,106.53327669821823L77.76833333333333,101.87519488169337L77.86500000000001,103.48378998657218L78.34833333333333,100.3313831342468L78.39666666666666,106.63197212297973L78.54166666666666,102.20930351304561L78.59,104.82335371427271L78.735,101.33017017991862L78.88000000000001,96.90405557245921L78.97666666666666,97.71875328594986L79.21833333333333,100.52334397062386L79.55666666666666,94.28608705177737L79.79833333333333,92.47087590202587L79.84666666666666,96.7386790865952L80.42666666666666,101.12512250627842L80.91000000000001,103.78306821278191L81.00666666666666,101.76463029915965L81.055,103.6513241275244L81.39333333333333,105.82266108418064L81.63499999999999,107.11592603817324L81.82833333333333,103.24396726307126L81.87666666666667,102.72312401781588L82.45666666666666,105.73233895689314L82.84333333333333,100.72312754863539L83.03666666666666,102.37169654413486L83.27833333333334,109.5438598683144L83.375,111.99359493557601L83.56833333333334,113.70883793058384L84.29333333333334,116.32219192995065L84.39,112.14292363651654L84.63166666666666,107.24584172921222L84.67999999999999,103.35096721861864L84.77666666666667,107.76936515935718L84.92166666666667,102.17734247665683L85.115,105.69731664550945L85.405,107.59949918682962L85.59833333333334,109.56077331123112L85.83999999999999,107.70216982017376L86.13,101.3704859855796L86.27499999999999,100.81835049408828L86.51666666666667,99.89179475079861L86.66166666666666,107.48758488041697L86.90333333333334,108.61669000829781L86.95166666666667,104.32580162552317L87.09666666666666,105.76009132306164L87.28999999999999,103.61355435514677L87.725,99.85123842516083L88.06333333333333,104.89946066831668L88.20833333333333,110.31961982902955L88.25666666666667,113.41571003828686L88.69166666666668,102.46901331087497L89.175,111.97430846298069L89.32,105.39060062649452L89.61,103.10714438010815L89.9,104.81963517695404L90.09333333333333,105.18090841787897L90.625,109.17783813010364L90.67333333333333,105.06609214502993L90.86666666666667,106.94433702682508L91.15666666666667,111.3225813344422L91.35,115.40641001434942L91.495,116.12780335647955L92.655,114.26021125735694L93.57333333333332,110.41401980174695L93.67,109.65742826135826L93.71833333333333,110.7092906550877L93.76666666666667,115.99122076489402L94.20166666666665,117.21396726881191L94.58833333333334,112.45080044337946L94.63666666666666,111.19012305777572L94.73333333333333,111.00871815229242L94.78166666666667,112.07707199779023L95.41000000000001,119.14806958989423L95.50666666666666,124.42644399735998L96.03833333333333,116.56745483835735L96.18333333333334,114.46222121691824L96.37666666666667,109.23596945271566L96.57000000000001,108.63035002032325L96.76333333333334,107.95088281798013L97.10166666666666,105.9675524721602L97.15,108.49114517271869L97.19833333333334,102.82586725652422L97.295,102.7121968370688L97.44000000000001,101.03779169690684L98.02000000000001,112.01481718046706L98.31,111.19441053761983L98.45500000000001,109.99894427713122L98.50333333333333,109.47581868801333L98.98666666666666,106.04382943531168L99.13166666666666,107.42068524968799L99.66333333333334,110.0163159693013L99.80833333333334,109.66390407590453L99.95333333333333,114.39396914308297L100.195,115.72286549845353L100.33999999999999,116.64700613760358L100.77499999999999,108.82435095276473L101.30666666666667,113.52789042929439L101.54833333333333,109.73393488013528L101.645,116.55963111927375L102.80499999999999,124.25691925650995L103.19166666666666,126.08871057490207L103.28833333333334,119.14954626834209L103.43333333333334,117.88178399727236L103.72333333333334,114.89785717204502L103.77166666666666,107.79239993021069L104.11,109.56314743951073L104.49666666666667,114.87576941844884L104.69,110.57463306067623L104.88333333333334,113.43710434125805L105.07666666666667,114.91755765251487L105.22166666666666,116.56067106230364L105.31833333333334,120.93606709661073L105.60833333333333,112.0629622031569L106.04333333333332,116.15041108425379L106.42999999999999,113.6731842344756L106.52666666666667,120.56814018164606L106.67166666666667,118.22454743906579L106.76833333333333,118.0807821209712L106.81666666666668,113.17483394238252L106.865,116.95242249067365L107.20333333333333,123.04347680029714L107.39666666666668,124.93510784874826L107.445,126.91535425049348L107.78333333333333,125.91960531152652L108.17,115.59601459072451L108.21833333333333,119.27801439026845L108.41166666666668,119.77105483090796L108.50833333333333,119.59089585707137L108.94333333333333,116.63517226079433L109.475,119.19062318145834L109.95833333333333,114.27482556903121L110.055,115.42327943565694L110.39333333333333,118.14588962031743L110.44166666666668,121.8312409140667L110.635,123.48586628305921L110.78,115.52430600564482L110.97333333333333,116.19116437578676L111.16666666666667,114.71995867338468L112.08500000000001,111.81402796892337L112.27833333333334,115.72651364796164L112.61666666666666,121.26471998687268L112.90666666666667,123.23273398873616L113.00333333333333,119.42559320925119L113.43833333333333,124.41401291369466L113.63166666666666,123.05359388636988L114.06666666666666,123.5393502405133L114.30833333333334,122.05634097163954L114.35666666666665,121.91612714234041L114.405,119.30993587555317L115.17833333333333,118.73017525900501L115.42,114.8349456896132L115.75833333333334,119.60594865499415L115.95166666666667,119.43830555926843L116.09666666666666,117.74211747557577L116.38666666666666,118.27502155727537L116.435,119.51254841104983L116.48333333333333,122.1764007926932L116.62833333333333,125.01698154693548L116.87,130.321959710632L117.16000000000001,131.63484124691144L117.20833333333333,123.48172181815421L117.69166666666666,121.99315225822036L117.74000000000001,127.46667879427852L117.93333333333334,131.8186763954483L117.98166666666667,130.40780984117524L118.175,130.2058371803399L118.27166666666666,126.29194594986654L118.56166666666667,120.82526099185596L118.70666666666666,122.9515117949274L118.89999999999999,127.87814385330836L118.94833333333334,128.12791581294633L119.04499999999999,130.1387606915337L119.09333333333333,129.08321627476823L119.19,129.8421802645863L119.72166666666666,133.51230232035755L119.81833333333334,128.26191588470724L120.205,124.07337616580357L120.25333333333334,124.0624137419321L120.39833333333334,123.00745104896177L122.08999999999999,122.80185904948203L122.57333333333334,127.31120424537832L123.10499999999999,124.11736559074504L123.44333333333334,127.38563023091189L123.49166666666667,128.52724897671243L124.07166666666667,125.98084128742514L124.21666666666667,129.46344694164452L124.65166666666667,127.22630278031264L125.135,123.06341300821443L125.52166666666668,125.33819687376105L125.57,122.97804006105474L125.66666666666667,128.46798201659809L125.81166666666667,123.84091461813146L126.10166666666667,114.06053981015503L126.34333333333333,123.06723844068897L126.39166666666667,125.14411824141534L126.585,120.09166347262021L126.63333333333333,122.05493400619477L126.97166666666668,127.4869606478575L127.40666666666667,120.13033924958484L127.55166666666668,123.71871855295521L128.035,123.14592425845157L128.51833333333332,121.96955553544811L129.00166666666667,122.44322677524832L129.87166666666667,124.49758819146128L130.21,129.62996585967045L130.54833333333332,134.71755119205656L130.645,133.83804162526812L130.935,142.8359930621665L131.03166666666667,135.2100610892225L131.17666666666665,132.30781981469684L131.225,130.92715076638154L131.51500000000001,123.88021181603004L131.70833333333334,124.0200108062013L132.24,121.55633837764165L132.385,126.85464201202812L132.62666666666667,135.55862857956183L133.255,131.26340667997889L134.41500000000002,130.05261956569606L135.33333333333334,135.2898131639782L135.57500000000002,134.95867379850287L135.62333333333333,135.36543484894122L136.10666666666665,134.70080541353036L136.25166666666667,128.99567890394096L136.49333333333334,123.8698969473145L136.88,127.68305205999025L137.025,124.6873590069902L137.36333333333334,128.81314759718725L137.55666666666667,130.096915572091L137.84666666666666,132.01001383376362L138.185,125.76247608132508L138.86166666666668,129.22677567641347L139.39333333333335,126.2499536314035L139.635,126.58205164661554L139.82833333333335,130.64066890949337L139.87666666666667,138.6264675478597L140.02166666666668,129.90378194930906L140.07,128.29996900250168L141.52,128.62509621435197L141.665,138.86421560557955L141.85833333333335,136.99158630914852L141.90666666666667,135.24116861669643L142.1483333333333,137.90287154584183L142.19666666666666,136.12684866946375L142.77666666666667,138.11604871011633L143.16333333333333,142.0348673299364L143.26,133.52123087617227L143.30833333333334,141.45991532547754L144.275,135.21382342662503L144.66166666666666,130.29306490711028L144.90333333333334,128.24115968401225L145,130.32093421372767L145.14499999999998,130.48818126531242L145.24166666666667,127.48468766696331L145.29,130.9615271788065L145.62833333333333,136.46003976233152L145.8216666666667,131.1808314822158L145.87,132.3701449311996L145.91833333333332,136.32557755930569L146.015,136.8309599389037L146.11166666666668,135.4390708917022L146.35333333333335,135.40777318916562L146.45,131.37595183159016L146.83666666666664,131.1474402910775L148.14166666666668,135.75928656615653L148.19,132.74743825172087L148.28666666666666,130.602804515211L148.72166666666666,132.51279913750184L148.77,137.52250097374255L149.10833333333332,134.423902033449L149.25333333333336,131.69431520383407L149.30166666666668,134.22016731787232L149.44666666666666,139.16098380976024L149.785,134.91796022947491L149.8816666666667,138.42737770018496L150.12333333333333,138.42437416039417L150.70333333333335,136.7406706292779L150.75166666666667,143.76034887071555L151.13833333333332,140.8281787934071L151.18666666666667,141.00575952900448L151.52499999999998,143.73137206299904L151.67000000000002,137.1681823495853L151.71833333333333,138.5955540134804L151.76666666666665,136.1509848090587L151.9116666666667,141.6467514880048L152.83,136.7134724740712L153.21666666666667,140.61739166048338L153.265,138.55536213557224L153.41,141.51334805870232L153.74833333333333,136.95783937683214L153.89333333333332,144.831906213227L153.99,144.5372703491825L154.135,144.532462631415L154.32833333333335,138.3103905980293L154.76333333333332,132.93715065863756L155.0533333333333,132.1725350126447L155.24666666666667,129.21005969433912L155.295,131.48049983256416L155.48833333333334,131.81546184106682L155.53666666666666,138.8574278729201L155.58499999999998,137.624414285245L155.82666666666665,137.33705860151198L156.06833333333333,133.97372769935936L156.11666666666667,136.5376881672383L156.31,140.8253748937512L156.55166666666668,141.1906691005268L156.60000000000002,141.01870144429438L156.64833333333334,145.25003542079108L156.79333333333332,144.16935953601345L157.22833333333335,135.9763715428361L157.27666666666667,135.76258012785007L157.325,141.56356963356427L157.56666666666666,143.10275670552303L157.80833333333334,138.95997952380208L157.95333333333332,141.6828675780203L158.09833333333333,145.8117988034192L158.195,146.2008945992054L158.29166666666666,147.3242084628619L158.43666666666667,140.4088315848277L158.775,133.04257455132995L159.355,134.9577119366085L159.45166666666665,146.00673256967994L160.08,141.94622109088021L160.12833333333333,141.30916561694573L160.66000000000003,145.3899546123244L161.14333333333332,149.02303513388023L161.24,142.03995291054358L161.33666666666667,143.93729754245345L161.62666666666667,145.7505259368185L161.965,142.31484980662847L162.01333333333332,142.30653751421085L162.255,140.47179650144642L162.44833333333335,140.70012808130303L162.49666666666667,144.5971886747248L162.69000000000003,140.10522254664698L163.31833333333336,139.33412214493154L163.415,139.89430764898896L163.46333333333334,138.4403418373182L163.89833333333334,139.04661125130147L163.995,142.1156348930996L164.09166666666667,140.84909696025858L164.47833333333335,144.86611449863437L164.865,141.71468251792146L165.01,139.7156645026657L165.05833333333334,140.8372248009952L165.20333333333332,146.68063398338032L165.29999999999998,148.62255009255813L165.34833333333336,150.77952843810323L165.49333333333334,148.29436835947752L165.78333333333333,146.9208248788304L165.9766666666667,138.108483677756L166.025,144.93826044896315L166.70166666666665,138.37471303283615L166.84666666666666,139.12332641207843L166.99166666666665,140.62125103905004L167.32999999999998,139.60547220012072L167.475,138.26358016074016L167.57166666666666,143.59106307828614L167.86166666666665,143.60817284109706L168.10333333333332,140.4028594751508L168.39333333333335,140.1378479730696L168.48999999999998,143.9488734776741L168.82833333333335,144.63172505706342L168.97333333333333,139.66232576376075L169.07,136.8806217670791L169.11833333333334,139.93455731394008L169.26333333333332,142.91908233834573L169.64999999999998,140.17706052704614L170.085,135.20765362884976L170.32666666666668,138.36158163730127L170.56833333333333,146.0390894948472L170.81,148.389957278909L171.43833333333333,151.35102736111983L171.535,146.24524853680433L172.01833333333332,140.89879021438298L172.35666666666668,140.8804063498517L172.50166666666667,140.915964928838L172.74333333333334,143.10432526086117L173.1783333333333,145.44354633220638L173.2266666666667,149.52223542528515L173.51666666666668,151.7856337356398L173.80666666666667,148.59921271132404L173.95166666666665,148.52936863974915L174.145,145.8782644848596L174.19333333333333,149.22493638638088L174.24166666666667,148.4409647920336L174.3383333333333,137.41649162164958L174.53166666666667,141.44542964095845L174.67666666666668,142.4840818011461L174.72500000000002,146.3768431141197L174.91833333333332,150.82477469171403L174.96666666666667,151.44413698032685L175.01500000000001,148.3086484784793L175.25666666666666,155.70403203218646L175.35333333333335,148.94476000338477L175.83666666666664,144.5689487544875L176.175,144.88867370177394L176.51333333333335,154.960123309428L176.65833333333333,150.05333611067203L177.52833333333334,153.52721361098327L177.77,150.07607854233765L178.205,152.9324181939756L178.35,156.47823754701585L178.44666666666666,152.4122162899588L178.78500000000003,156.03560841090763L178.97833333333332,148.20653470520543L179.02666666666664,144.59911032774664L179.41333333333336,148.71330302869453L179.60666666666665,150.26902229496937L179.655,150.94628243749796L179.8,157.69711798849977L179.89666666666665,158.21368262781664L180.235,153.69658116825795L180.4283333333333,150.65155543046225L180.62166666666667,154.45333971236366L180.81500000000003,157.22199854406247L180.91166666666666,154.37786175461133L181.20166666666668,153.8762597277851L181.975,145.2353456613476L182.12,146.00543226939763L182.265,142.20098776663738L182.41,144.69953201201793L182.45833333333334,139.05524701826118L182.7,142.40145538182463L183.37666666666667,144.6991118879998L183.52166666666668,145.79407055687213L183.57,146.99400053686685L183.95666666666665,138.05396158615818L184.34333333333333,141.16747179460566L184.97166666666666,155.858606531811L185.31,155.1738702121927L185.6,147.98202279946528L185.84166666666667,150.29649761522606L186.37333333333333,149.66876099589345L186.76,146.26112298776434L186.80833333333334,145.2656343830212L187.05,149.0919064171662L187.14666666666665,150.6164799003333L187.24333333333334,153.53044474294964L187.38833333333332,155.38396094901077L187.48499999999999,152.3770888344211L187.72666666666666,147.92968706224931L187.77499999999998,145.51030248126133L188.1616666666667,140.98777129245246L188.21,145.01111690755155L188.355,157.22429710719268L188.69333333333333,158.38953218277263L188.83833333333334,153.55589558491684L188.88666666666666,155.65874511843668L188.935,151.5233673599109L189.37,155.5839899841991L189.56333333333333,152.49627913379948L189.75666666666666,148.94101409282848L190.095,152.00006955722907L190.14333333333332,152.35779077684842L190.385,151.59021644875978L191.11,151.99219946077807L191.15833333333333,153.16644166476334L191.3516666666667,149.0043461809564L191.44833333333332,148.2577258020644L191.78666666666666,146.91657182157073L191.98000000000002,143.7016635786297L192.415,147.92625113790046L192.4633333333333,156.14833492079265L192.51166666666668,151.27057101511292L192.56,154.5325809704264L192.60833333333335,154.86233209055663L192.80166666666668,156.31630215693713L192.89833333333334,158.14498040228602L192.995,161.28869752138564L193.14000000000001,160.5375404217822L193.285,155.86119094008106L193.33333333333331,160.1150171763533L193.47833333333335,155.11271215479573L194.01000000000002,152.59324571252463L194.3,153.51820739722604L194.59,156.50285450349065L195.025,165.82338767844325L195.07333333333332,156.16957520960503L195.315,158.0587588376923L195.46,156.9663409463837L195.75,158.18956219150272L195.94333333333333,160.5904406344512L196.13666666666666,159.13165281984914L196.5233333333333,159.60134759172027L196.66833333333335,161.13521576061385L196.95833333333334,162.16032792171558L197.00666666666666,155.12601305628252L197.39333333333332,155.31983191480893L197.53833333333336,151.13383264726795L197.58666666666667,151.89366834751604L197.73166666666665,154.48439628476999L198.16666666666666,151.73501482126179L198.795,153.8915891654316L198.84333333333333,148.7708924393072L198.89166666666665,155.39924506784763L198.94000000000003,159.9339561345654L199.085,152.94693937554823L199.61666666666667,147.10307693633357L200.77666666666667,152.07302704902241L200.92166666666665,153.38241348893496L201.01833333333335,157.37835800547035L201.115,156.74537599980016L201.26,164.8252444177817L201.35666666666668,159.54949083745183L201.45333333333332,160.21060767423933L201.59833333333336,158.03582382352246L201.64666666666668,163.2466893777316L202.51666666666668,163.40547060639057L203,157.9770937995338L203.33833333333334,151.65243356205363L203.53166666666667,151.48194138036575L203.57999999999998,155.74272166148663L203.82166666666666,151.572200322484L203.86999999999998,152.60090396424235L204.01500000000001,151.2404612017876L204.54666666666668,153.85875946719685L204.595,153.50689983391305L205.175,151.08346973433217L205.22333333333333,154.6215977440722L205.32,157.1423369843034L205.36833333333334,152.94295634974648L205.51333333333332,156.37224912494185L205.56166666666667,155.82452636629202L205.60999999999999,159.93564586204207L205.94833333333332,157.20623754240228L206.04500000000002,152.83781638370243L206.14166666666665,157.83910403386525L206.72166666666666,156.74893252453668L206.86666666666667,155.95179663897432L206.91500000000002,152.2885478282027L206.96333333333334,154.17127957964257L207.01166666666666,157.2713251627941L207.205,157.67808274492378L207.35,154.58138416805716L208.07500000000002,154.54177527546196L208.17166666666665,158.18118018221446L208.46166666666667,152.77719657368414L208.5583333333333,149.93544560877652L208.75166666666667,151.16892223243815L208.94500000000002,150.74255556037963L208.99333333333334,154.91062147480812L209.71833333333333,155.29072933591942L210.15333333333334,150.41358770607437L210.25,151.84206490086632L210.3466666666667,152.18976238946385L210.49166666666667,155.83491976964632L210.5883333333333,157.5000497431049L210.73333333333335,159.30097160878717L211.16833333333332,154.1103468164381L211.31333333333333,160.30769154933554L211.45833333333331,158.42473716203847L212.52166666666668,157.09175422349261L212.76333333333335,154.61381886099988L213.05333333333334,149.38585943755632L213.19833333333332,146.8868790410586L213.39166666666668,147.85280309335155L213.68166666666667,146.1642631281362L213.82666666666665,152.60202053481018L213.92333333333335,155.05846674974964L214.02,154.5659031947625L214.16500000000002,157.13245102406574L214.26166666666666,154.29388421917577L214.40666666666667,161.8999232992209L215.22833333333332,165.28456067470768L215.27666666666664,159.86593871729406L215.42166666666668,155.11993712792895L215.80833333333334,158.76625459319413L215.85666666666665,158.7555892618064L216.29166666666666,158.3931816763618L216.34,168.5546716515385L216.58166666666668,165.71009272480984L216.63,168.10994570103276L216.6783333333333,162.07289644626968L216.82333333333335,160.9520940193426L217.11333333333334,159.9010186892087L217.35500000000002,158.00185571082443L217.5,157.49232084493642L217.88666666666666,157.01779957139968L218.08,156.16112368777084L218.17666666666665,153.7694252197426L218.61166666666668,158.51119933274276L218.85333333333335,158.44882118312646L219.14333333333335,157.60820000891766L219.19166666666666,160.8496844001107L219.43333333333334,158.19606515094594L219.77166666666668,159.59679983809565L220.11,165.10463795873508L220.4,165.81376530774222L220.545,165.78928749351374L220.64166666666668,164.50295177810597L220.69,160.99064284153698L221.02833333333334,159.53071655743074L221.415,163.2059559316203L221.46333333333334,159.78670552079467L221.56,157.86799271288268L221.75333333333336,166.0734868108198L221.94666666666666,162.51394935959365L222.18833333333333,169.42293809720152L222.76833333333335,161.54599032681153L223.05833333333334,164.23218280959705L223.34833333333333,161.8457606344734L223.49333333333334,158.88788460906235L223.78333333333333,162.9644460249894L224.36333333333332,162.27387817674597L224.55666666666667,156.04233966811728L224.89499999999998,156.51956832494872L225.04000000000002,164.4332845549973L225.5716666666667,163.2378006280179L226.05499999999998,159.97286560897322L226.10333333333332,161.88107850768742L226.24833333333333,161.04307472836123L226.53833333333333,149.18416956502884L226.78,156.84988010548764L227.505,158.88830965890412L227.5533333333333,157.2585992081995L227.94,152.9971334114096L228.18166666666667,154.9228908142103L228.4716666666667,155.01767979148946L228.56833333333333,166.20767924597214L228.61666666666667,160.6378070772311L228.90666666666667,159.8762335074318L229.39000000000001,162.57888595177965L229.535,158.28545137354274L229.63166666666666,157.25356782501063L229.68,156.820531646163L229.72833333333335,156.68693040356086L229.92166666666665,154.96616525736476L230.405,156.47167013220206L230.45333333333332,158.072726200415L230.55,158.97637284183102L231.03333333333333,157.8788848279929L231.08166666666665,165.89149740451666L231.90333333333334,158.5508495134955L232.24166666666665,162.33176718490398L232.435,162.98388559780759L232.87,153.98391519047166L233.11166666666665,159.68648927007524L233.35333333333332,159.0352187764311L233.64333333333332,162.77552442381764L234.07833333333335,161.07898758786908L234.27166666666665,163.80903258644338L234.465,161.6294538994002L234.61,160.99234205361412L234.9,160.54297680542592L235.14166666666665,161.2381951599462L235.43166666666664,168.28358435327664L235.67333333333332,164.80611139115607L235.81833333333336,160.5714489887769L235.86666666666667,159.98894665423717L236.205,156.46797356238176L236.59166666666667,160.6835630585564L236.97833333333335,159.98702383099868L237.17166666666665,159.7482734302215L237.31666666666666,162.79076695081787L237.46166666666664,165.663863380177L237.51,168.83357222999524L237.89666666666668,160.7237303836667L237.99333333333334,167.63998026511214L238.525,163.09480707920278L238.91166666666666,160.3335126559537L239.20166666666665,163.251791076696L239.44333333333333,162.15057230760817L239.63666666666668,165.79787084084845L240.02333333333334,170.71568416489418L241.135,161.54545173962867L241.425,157.52716867637608L241.61833333333334,157.65390116043076L242.34333333333333,164.374943826599L242.63333333333333,162.00253283381645L242.7783333333333,161.9544124424468L242.875,163.7284545886523L243.21333333333334,157.26002059865039L243.35833333333332,158.4730341678145L243.55166666666668,158.5327811482717L243.745,154.9768532039624L243.79333333333332,158.87704821121108L243.84166666666667,160.64313429171688L243.93833333333333,152.58943206772116L244.22833333333332,155.51097903433387L244.5666666666667,150.13334982027376L244.66333333333333,149.03843380230526L244.76,152.6840870548359L244.95333333333335,151.23144285256095L245.09833333333333,150.28972822412507L245.14666666666668,161.0277568315545L245.24333333333334,165.83978533596274L245.63,167.03133536249686L246.01666666666668,160.50448543113637L246.11333333333334,159.94086022306783L246.79,162.32435448604406L246.935,164.61695333264817L247.07999999999998,160.17523044075102L247.56333333333333,164.66923915937858L247.75666666666666,163.46901481864046L247.90166666666667,164.67131368587724L248.62666666666667,163.57496639412827L248.8683333333333,163.52076276494375L248.91666666666666,162.94438272686784L249.10999999999999,164.81318158848276L249.30333333333334,159.9536364826154L249.35166666666666,168.74261036590283L249.4,166.50556898519724L249.49666666666664,158.44249054196675L249.73833333333332,165.44519494773863L249.78666666666666,157.2370206856842L249.835,151.84593175078123L250.27,162.3307719220203L250.65666666666667,166.59975162443405L250.85,164.9705102973991L250.94666666666666,160.12169818245255L251.23666666666665,166.90391443826488L251.62333333333333,161.400145675288L251.67166666666668,168.2190861234345L251.96166666666667,167.70535729463563L252.10666666666665,167.32158183893958L252.49333333333334,166.4184361543739L252.54166666666666,168.80068571606182L252.78333333333333,163.96515379452052L252.9283333333333,165.32460877718535L252.97666666666666,160.6729227007747L253.12166666666667,163.2865354693723L253.26666666666665,165.66191486339522L253.41166666666666,168.537264140968L253.99166666666667,160.5739748290327L254.18499999999997,163.15313091106097L254.52333333333334,160.77767901317404L254.81333333333333,163.8083067792423L254.95833333333334,167.32738076554344L255.00666666666666,169.36254427734974L255.05499999999998,163.44123520555476L255.2,160.56346549810397L255.24833333333333,159.78238105667486L255.58666666666664,152.00372978146584L255.68333333333334,156.56087068137947L255.78,161.0775519193257L256.07,163.11420760995418L256.31166666666667,169.27194025544088L256.36,171.78373668210364L256.505,173.740912242035L256.65,165.5172916288971L256.74666666666667,165.0075284597754L256.84333333333336,164.12707415327307L257.23,158.64471373978182L257.6166666666667,162.4123676515992L257.71333333333337,161.51266289099303L257.81,161.18771444525868L257.85833333333335,166.18622586945625L257.90666666666664,159.13012351644002L258.245,161.1694208601234L258.29333333333335,157.68029594296922L259.16333333333336,160.25728202745148L259.30833333333334,165.33905617287652L259.84000000000003,165.02548256809052L260.13,168.23629389342386L260.7583333333333,164.47083275161214L261.04833333333335,162.06642152215258L261.09666666666664,166.81773497429617L261.38666666666666,165.5926359377332L261.4833333333333,161.67447448027298L261.6766666666667,166.9318231216202L262.2083333333333,161.81980889029083L262.305,164.64224726311429L262.4016666666667,164.4435173985485L262.59499999999997,163.9138498590662L262.69166666666666,171.97512166775908L262.93333333333334,166.89373299287345L263.12666666666667,168.37667445186727L263.36833333333334,165.7894305553672L264.77,165.11900698701365L264.8666666666667,161.24913781380548L265.3016666666667,156.62315899786884L265.35,165.21648655091244L265.3983333333333,160.62306415649962L265.78499999999997,164.13316682107873" style="fill: none;" fill="none"></path></g></g></g></g><g opacity="0.2"><g><g><g><path stroke="rgb(255, 112, 67)" stroke-width="2px" d="M32.480000000000004,-3.362764692306487L32.721666666666664,9.636972570419342L33.06,4.465900325775178L33.108333333333334,-3.5797997474670096L33.39833333333333,2.4949029922485666L33.446666666666665,1.8483132362366037L33.97833333333333,20.203832530975372L34.074999999999996,11.717479133605988L34.461666666666666,23.235824489593536L34.55833333333334,24.879264736175568L34.99333333333333,17.172262573242218L35.235,30.679666900634796L35.96,34.836080217361484L36.00833333333333,29.361504936218292L36.63666666666666,27.309399032592804L36.685,39.42352523803714L36.733333333333334,31.668836975097687L37.265,39.946088933944736L37.410000000000004,36.20057787895206L37.60333333333334,39.3051117897034L37.79666666666667,48.94319000244142L37.94166666666666,40.840941810607944L38.086666666666666,48.87588086128236L38.18333333333333,35.95341196060184L38.425000000000004,54.612982892990125L38.52166666666667,44.498128080368055L38.57,38.49516549110416L39.05333333333333,39.42196383476261L39.24666666666667,48.237731122970594L39.440000000000005,51.20081033706666L39.53666666666667,54.688985252380384L39.585,56.97213664054872L39.730000000000004,38.36561121940616L40.455000000000005,49.94957771301271L40.84166666666667,46.7515284061432L40.88999999999999,51.231996202468885L41.47,46.916741752624525L41.76,61.95588269233705L41.80833333333333,41.30792798995975L41.85666666666667,53.66301670074464L42.43666666666667,50.69609727859498L42.82333333333333,56.18358578681947L43.01666666666667,58.628701114654554L43.11333333333334,70.47481455802918L43.355,60.93265714645387L43.59666666666667,53.073270463943494L43.693333333333335,62.332560682296766L44.225,44.658910417556775L44.515,68.65886034965516L44.56333333333333,60.98544945716859L45.24,61.850255870819105L45.288333333333334,53.28688731193544L45.385,64.5773099899292L45.626666666666665,48.9036063194275L45.723333333333336,60.498165035247816L46.013333333333335,65.31239333152772L46.20666666666666,67.87081589698792L46.44833333333334,54.061638736724866L46.641666666666666,56.96179761886598L46.78666666666666,76.06210627555848L46.88333333333333,68.04569306373597L47.07666666666667,58.337478303909315L47.125,55.67878832817079L47.36666666666667,59.06074562072755L47.415,69.43040456771851L47.705000000000005,65.5579978466034L48.04333333333333,69.37562885284424L48.81666666666667,65.75747766494752L48.913333333333334,76.65324511528016L48.961666666666666,75.20109786987305L49.010000000000005,72.66968336105347L49.155,69.43973078727723L49.251666666666665,68.61079444885254L49.928333333333335,63.696762943267835L49.97666666666667,61.51763477325441L50.07333333333333,72.04031124114991L50.169999999999995,73.86436786651612L50.266666666666666,77.53919377326966L50.459999999999994,69.14601817131043L50.55666666666667,80.14513363838196L50.75,79.54504837989808L50.84666666666667,71.72085657119752L51.04,72.18969955444337L51.33,72.84325232505799L51.42666666666667,85.11389865875245L51.62,67.76713027954102L52.39333333333333,71.83935441970826L52.44166666666667,73.8936547279358L52.58666666666667,56.04103388786317L52.68333333333334,84.80220880508423L52.876666666666665,71.0849012374878L52.973333333333336,72.91022386550904L53.553333333333335,66.99571266174317L53.795,84.40869297981263L53.843333333333334,73.44548978805543L54.23,77.40157928466797L54.278333333333336,70.3890217781067L54.52,82.10055913925171L54.568333333333335,72.12758102416993L54.76166666666666,76.04113283157349L54.955,86.54418625831605L55.245,68.95582237243653L55.29333333333334,46.47402062416078L55.535000000000004,71.16774001121522L55.63166666666667,72.91381087303162L55.97,75.91060795783997L56.06666666666666,75.90913095474244L56.405,70.05513467788697L56.791666666666664,78.4702965259552L56.84,64.17147173881531L57.22666666666667,75.25578918457032L57.61333333333333,55.41318097114564L57.71,80.51130380630494L58.483333333333334,83.66723742485047L59.01499999999999,83.91229333877564L59.11166666666667,99.77209939956666L59.208333333333336,87.87534584999085L59.25666666666667,64.34765710830689L59.35333333333333,82.21914138793946L59.40166666666667,88.71749081611634L59.498333333333335,76.41857042312623L59.54666666666667,86.8750771522522L59.595,86.29254713058472L59.836666666666666,65.5752154827118L60.12666666666667,89.40965666770936L61.093333333333334,86.71421041488648L61.48,77.1733612060547L61.625,75.76649465560914L61.67333333333333,80.25962247848511L61.769999999999996,80.44648447036744L61.86666666666667,101.78601422309876L61.96333333333334,84.11046495437623L62.25333333333334,80.25185766220093L63.026666666666664,86.90309801101685L63.075,95.70430626869202L63.17166666666667,95.60728826522828L63.31666666666666,80.93178548812867L63.70333333333333,89.68564524650574L63.751666666666665,95.77203741073609L64.18666666666667,76.48950877189637L64.38,80.77534976005555L64.76666666666667,74.0063711643219L64.91166666666666,83.15724935531617L65.00833333333333,86.30368795394898L65.58833333333332,101.9560805797577L65.83,93.90383949279786L66.02333333333333,96.92954363822938L66.265,89.90090789794922L66.89333333333333,100.15721740722657L66.99000000000001,89.29672923088074L67.28,101.5930332183838L67.425,112.24758496284484L67.52166666666666,85.55147137641907L67.715,97.92255392074586L67.76333333333334,80.53523125648499L68.05333333333333,97.81367769241334L69.02,98.03953256607056L69.11666666666667,84.23179020881653L69.21333333333334,97.10847201347352L69.69666666666667,80.14555563926697L70.035,94.50670995712281L70.325,83.82941236495972L70.71166666666667,86.94238629341126L71.485,83.08044519424439L71.63,78.8289972782135L71.82333333333334,98.95244708061219L72.11333333333333,104.16833581924439L72.21,115.38427534103393L72.45166666666667,104.60620393753052L72.59666666666668,104.7520896434784L72.69333333333333,113.81801905632018L73.225,94.1562804222107L73.56333333333333,88.66689291000367L73.75666666666667,99.84248914718628L73.85333333333332,87.9336241722107L74.24,96.1958950996399L74.28833333333333,83.04238071441651L75.20666666666668,90.32134737968445L75.4,94.94238367080689L75.88333333333333,101.27716555595399L75.93166666666666,101.33789148330689L76.02833333333334,92.35505404472352L76.22166666666666,91.89705648422242L76.65666666666667,91.14251890182496L77.23666666666666,98.79660215377808L77.43,97.9417549610138L77.52666666666666,99.76214017868043L77.67166666666667,119.75135149955749L77.76833333333333,94.88807215690613L77.86500000000001,105.89668264389039L78.34833333333333,95.60277285575867L78.39666666666666,116.0828556060791L78.54166666666666,95.57530059814454L78.59,108.74442901611329L78.735,96.09039487838746L78.88000000000001,90.26488366127015L78.97666666666666,98.94079985618592L79.21833333333333,104.7302299976349L79.55666666666666,84.9302016735077L79.79833333333333,89.74805917739869L79.84666666666666,103.1403838634491L80.42666666666666,107.70478763580323L80.91000000000001,107.76998677253724L81.00666666666666,98.7369734287262L81.055,106.48136487007142L81.39333333333333,109.07966651916504L81.63499999999999,109.055823469162L81.82833333333333,97.4360291004181L81.87666666666667,101.94185914993287L82.45666666666666,110.24616136550904L82.84333333333333,93.20931043624878L83.03666666666666,104.84455003738404L83.27833333333334,120.30210485458373L83.375,115.6681975364685L83.56833333333334,116.2817024230957L84.29333333333334,120.24222292900085L84.39,105.87402119636536L84.63166666666666,99.90021886825562L84.67999999999999,97.50865545272828L84.77666666666667,114.39696207046508L84.92166666666667,93.7893084526062L85.115,110.97727789878844L85.405,110.45277299880982L85.59833333333334,112.50268449783324L85.83999999999999,104.91426458358765L86.13,91.87296023368836L86.27499999999999,99.9901472568512L86.51666666666667,98.50196113586426L86.66166666666666,118.88127007484435L86.90333333333334,110.31034770011902L86.95166666666667,97.88946905136109L87.09666666666666,107.91152586936951L87.28999999999999,100.39374890327454L87.725,94.20776453018189L88.06333333333333,112.47179403305053L88.20833333333333,118.44985857009887L88.25666666666667,118.05984535217284L88.69166666666668,86.04896821975709L89.175,126.23225119113921L89.32,95.51503887176514L89.61,99.68196001052857L89.9,107.3883713722229L90.09333333333333,105.72281827926636L90.625,115.17323269844054L90.67333333333333,98.89847316741944L90.86666666666667,109.76170434951783L91.15666666666667,117.88994779586791L91.35,121.5321530342102L91.495,117.20989336967467L92.655,111.45882310867309L93.57333333333332,104.64473261833191L93.67,108.52254095077515L93.71833333333333,112.28708424568175L93.76666666666667,123.91411592960357L94.20166666666665,119.04808702468871L94.58833333333334,105.30605020523072L94.63666666666666,109.29910697937012L94.73333333333333,110.73661079406737L94.78166666666667,113.67960276603698L95.41000000000001,129.75456597805024L95.50666666666666,132.34400560855866L96.03833333333333,104.77897109985352L96.18333333333334,111.30437078475951L96.37666666666667,101.39659180641175L96.57000000000001,107.72192087173462L96.76333333333334,106.93168201446534L97.10166666666666,102.99255695343018L97.15,112.27653422355651L97.19833333333334,94.32795038223267L97.295,102.54169120788575L97.44000000000001,98.52618398666382L98.02000000000001,128.4803554058075L98.31,109.963800573349L98.45500000000001,108.20574488639832L98.50333333333333,108.69113030433655L98.98666666666666,100.89584555625916L99.13166666666666,109.48596897125245L99.66333333333334,113.9097620487213L99.80833333333334,109.13528623580933L99.95333333333333,121.4890667438507L100.195,117.71621003150939L100.33999999999999,118.03321709632873L100.77499999999999,97.0903681755066L101.30666666666667,120.58319964408874L101.54833333333333,104.04300155639649L101.645,126.79817547798156L102.80499999999999,135.8028514623642L103.19166666666666,128.83639755249024L103.28833333333334,108.7407998085022L103.43333333333334,115.98014059066772L103.72333333333334,110.42196693420411L103.77166666666666,97.13421406745911L104.11,112.21926870346068L104.49666666666667,122.84470238685607L104.69,104.12292852401734L104.88333333333334,117.73081126213073L105.07666666666667,117.13823761940002L105.22166666666666,119.02534117698669L105.31833333333334,127.49916114807128L105.60833333333333,98.75330486297608L106.04333333333332,122.28158440589904L106.42999999999999,109.95734395980836L106.52666666666667,130.91057410240174L106.67166666666667,114.7091583251953L106.76833333333333,117.86513414382934L106.81666666666668,105.81591167449952L106.865,122.61880531311034L107.20333333333333,132.18005826473237L107.39666666666668,127.77255442142486L107.445,129.88572385311127L107.78333333333333,124.42598190307616L108.17,100.11062850952149L108.21833333333333,124.80101408958434L108.41166666666668,120.51061549186706L108.50833333333333,119.32065739631652L108.94333333333333,112.20158686637878L109.475,123.02379956245422L109.95833333333333,106.90112915039063L110.055,117.1459602355957L110.39333333333333,122.22980489730834L110.44166666666668,127.35926785469054L110.635,125.96780433654784L110.78,103.58196558952332L110.97333333333333,117.19145193099975L111.16666666666667,112.51315011978149L112.08500000000001,107.45513191223145L112.27833333333334,121.59524216651916L112.61666666666666,129.57202949523926L112.90666666666667,126.18475499153136L113.00333333333333,113.7148820400238L113.43833333333333,131.8966424703598L113.63166666666666,121.01296534538268L114.06666666666666,124.2679847717285L114.30833333333334,119.83182706832885L114.35666666666665,121.70580639839172L114.405,115.4006489753723L115.17833333333333,117.86053433418273L115.42,108.99210133552552L115.75833333333334,126.76245310306548L115.95166666666667,119.18684091567992L116.09666666666666,115.19783535003661L116.38666666666666,119.07437767982482L116.435,121.36883869171142L116.48333333333333,126.17217936515807L116.62833333333333,129.27785267829896L116.87,138.27942695617676L117.16000000000001,133.60416355133057L117.20833333333333,111.2520426750183L117.69166666666666,119.7602979183197L117.74000000000001,135.6769685983658L117.93333333333334,138.34667279720307L117.98166666666667,128.29151000976563L118.175,129.90287818908692L118.27166666666666,120.42110910415649L118.56166666666667,112.62523355484008L118.70666666666666,126.1408879995346L118.89999999999999,135.26809194087983L118.94833333333334,128.50257375240326L119.04499999999999,133.15502800941468L119.09333333333333,127.49989964962005L119.19,130.98062624931336L119.72166666666666,139.0174854040146L119.81833333333334,120.38633623123168L120.205,117.79056658744811L120.25333333333334,124.04597010612487L120.39833333333334,121.42500700950622L122.08999999999999,122.49347105026244L122.57333333333334,134.07522203922272L123.10499999999999,119.32660760879516L123.44333333333334,132.28802719116212L123.49166666666667,130.2396770954132L124.07166666666667,122.16122975349425L124.21666666666667,134.68735542297364L124.65166666666667,123.87058653831481L125.135,116.81907835006713L125.52166666666668,128.750372672081L125.57,119.43780484199523L125.66666666666667,136.70289494991303L125.81166666666667,116.90031352043151L126.10166666666667,99.38997759819031L126.34333333333333,136.57728638648987L126.39166666666667,128.2594379425049L126.585,112.51298131942748L126.63333333333333,124.9998398065567L126.97166666666668,135.63500061035157L127.40666666666667,109.09540715217591L127.55166666666668,129.10128750801087L128.035,122.28673281669616L128.51833333333332,120.20500245094298L129.00166666666667,123.15373363494872L129.87166666666667,127.57913031578063L130.21,137.32853236198426L130.54833333333332,142.3489291906357L130.645,132.51877727508545L130.935,156.33292021751404L131.03166666666667,123.77116312980651L131.17666666666665,127.95445790290832L131.225,128.8561471939087L131.51500000000001,113.30980339050292L131.70833333333334,124.22970929145812L132.24,117.86082973480224L132.385,134.8020974636078L132.62666666666667,148.61460843086243L133.255,124.82057383060454L134.41500000000002,128.23643889427186L135.33333333333334,143.14560356140137L135.57500000000002,134.46196475028992L135.62333333333333,135.9755764245987L136.10666666666665,133.70386126041413L136.25166666666667,120.43798913955688L136.49333333333334,116.18122401237487L136.88,133.4027847290039L137.025,120.19381942749023L137.36333333333334,135.00183048248292L137.55666666666667,132.02256753444672L137.84666666666666,134.8796612262726L138.185,116.39116945266723L138.86166666666668,134.42322506904603L139.39333333333335,121.78472056388854L139.635,127.08019866943359L139.82833333333335,136.72859480381013L139.87666666666667,150.60516550540925L140.02166666666668,116.81975355148315L140.07,125.89424958229064L141.52,129.1127870321274L141.665,154.22289469242097L141.85833333333335,134.18264236450196L141.90666666666667,132.6155420780182L142.1483333333333,141.89542593955994L142.19666666666666,133.46281435489655L142.77666666666667,141.09984877109528L143.16333333333333,147.91309525966645L143.26,120.75077619552611L143.30833333333334,153.36794199943543L144.275,125.84468557834624L144.66166666666666,122.91192712783813L144.90333333333334,125.16330184936523L145,133.4405960083008L145.14499999999998,130.73905184268952L145.24166666666667,122.97944726943969L145.29,136.17678644657136L145.62833333333333,144.70780863761902L145.8216666666667,123.26201906204223L145.87,134.1541151046753L145.91833333333332,142.25872650146485L146.015,137.5890335083008L146.11166666666668,133.35123732089997L146.35333333333335,135.36082663536072L146.45,125.32821979522704L146.83666666666664,130.80467298030854L148.14166666666668,142.67705597877503L148.19,128.22966578006745L148.28666666666666,127.38585391044616L148.72166666666666,135.37779107093812L148.77,145.03705372810364L149.10833333333332,129.77600362300873L149.25333333333336,127.59993495941161L149.30166666666668,138.00894548892975L149.44666666666666,146.57220854759217L149.785,128.55342485904694L149.8816666666667,143.69150390625L150.12333333333333,138.419868850708L150.70333333333335,134.21511533260346L150.75166666666667,154.28986623287201L151.13833333333332,136.42992367744446L151.18666666666667,141.27213063240052L151.52499999999998,147.8197908639908L151.67000000000002,127.32339777946471L151.71833333333333,140.73661150932313L151.76666666666665,132.48413100242615L151.9116666666667,149.89040150642396L152.83,129.31355395317078L153.21666666666667,146.47327044010163L153.265,135.46231784820557L153.41,145.95032694339753L153.74833333333333,130.1245763540268L153.89333333333332,156.64300646781922L153.99,144.09531655311585L154.135,144.5252510547638L154.32833333333335,128.97728254795075L154.76333333333332,124.87729074954986L155.0533333333333,131.0256115436554L155.24666666666667,124.76634671688079L155.295,134.88616003990174L155.48833333333334,132.3179048538208L155.53666666666666,149.42037692070008L155.58499999999998,135.7748939037323L155.82666666666665,136.90602507591248L156.06833333333333,128.92873134613038L156.11666666666667,140.3836288690567L156.31,147.2569049835205L156.55166666666668,141.7386104106903L156.60000000000002,140.76074995994568L156.64833333333334,151.5970363855362L156.79333333333332,142.54834570884705L157.22833333333335,123.68688955307006L157.27666666666667,135.4418930053711L157.325,150.26505389213563L157.56666666666666,145.4115373134613L157.80833333333334,132.7458137512207L157.95333333333332,145.76719965934754L158.09833333333333,152.00519564151764L158.195,146.78453829288483L158.29166666666666,149.00917925834656L158.43666666666667,130.0357662677765L158.775,121.99318900108337L159.355,137.83041801452637L159.45166666666665,162.58026351928712L160.08,135.85545387268067L160.12833333333333,140.353582406044L160.66000000000003,151.51113810539246L161.14333333333332,154.472655916214L161.24,131.56532957553864L161.33666666666667,146.7833144903183L161.62666666666667,148.4703685283661L161.965,137.1613356113434L162.01333333333332,142.29406907558442L162.255,137.7196849822998L162.44833333333335,141.04262545108796L162.49666666666667,150.4427795648575L162.69000000000003,133.36727335453034L163.31833333333336,138.1774715423584L163.415,140.73458590507508L163.46333333333334,136.25939311981202L163.89833333333334,139.9560153722763L163.995,146.71917035579682L164.09166666666667,138.94929006099701L164.47833333333335,150.89164080619813L164.865,136.98753454685212L165.01,136.7171374797821L165.05833333333334,142.51956524848939L165.20333333333332,155.445747756958L165.29999999999998,151.53542425632477L165.34833333333336,154.0149959564209L165.49333333333334,144.566628241539L165.78333333333333,144.8605096578598L165.9766666666667,124.8899718761444L166.025,155.18292560577393L166.70166666666665,128.52939190864564L166.84666666666666,140.24624648094178L166.99166666666665,142.86813797950745L167.32999999999998,138.0818039417267L167.475,136.25074210166932L167.57166666666666,151.5822874546051L167.86166666666665,143.63383748531342L168.10333333333332,135.5948894262314L168.39333333333335,139.74033071994782L168.48999999999998,149.665411734581L168.82833333333335,145.65600242614747L168.97333333333333,132.20822682380677L169.07,132.70806577205659L169.11833333333334,144.51546063423157L169.26333333333332,147.39586987495423L169.64999999999998,136.06402781009675L170.085,127.75354328155517L170.32666666666668,143.09247364997864L170.56833333333333,157.55535128116608L170.81,151.91625895500184L171.43833333333333,155.79263248443604L171.535,138.58658030033112L172.01833333333332,132.87910273075104L172.35666666666668,140.85283055305482L172.50166666666667,140.9693027973175L172.74333333333334,146.38686575889588L173.1783333333333,148.95237793922425L173.2266666666667,155.64026906490326L173.51666666666668,155.18073120117188L173.80666666666667,143.81958117485047L173.95166666666665,148.42460253238679L174.145,141.90160825252534L174.19333333333333,154.24494423866273L174.24166666666667,147.2650074005127L174.3383333333333,120.8797818660736L174.53166666666667,147.48883666992188L174.67666666666668,144.04206004142762L174.72500000000002,152.21598508358002L174.91833333333332,157.49667205810547L174.96666666666667,152.37318041324616L175.01500000000001,143.605415725708L175.25666666666666,166.7971073627472L175.35333333333335,138.8058519601822L175.83666666666664,138.00523188114167L176.175,145.36826112270356L176.51333333333335,170.06729772090912L176.65833333333333,142.69315531253815L177.52833333333334,158.7380298614502L177.77,144.8993759393692L178.205,157.2169276714325L178.35,161.79696657657624L178.44666666666666,146.31318440437317L178.78500000000003,161.47069659233094L178.97833333333332,136.46292414665223L179.02666666666664,139.18797376155854L179.41333333333336,154.88459208011628L179.60666666666665,152.60260119438172L179.655,151.9621726512909L179.8,167.82337131500245L179.89666666666665,158.988529586792L180.235,146.92092897892L180.4283333333333,146.08401682376862L180.62166666666667,160.15601613521576L180.81500000000003,161.37498679161072L180.91166666666666,150.11165657043458L181.20166666666668,153.12385668754578L181.975,132.2739745616913L182.12,147.16056218147278L182.265,136.49432101249695L182.41,148.4473483800888L182.45833333333334,130.58881952762604L182.7,147.4207679271698L183.37666666666667,148.14559664726258L183.52166666666668,147.43650856018067L183.57,148.79389550685883L183.95666666666665,124.6439031600952L184.34333333333333,145.83773710727692L184.97166666666666,177.89530863761902L185.31,154.1467657327652L185.6,137.19425168037415L185.84166666666667,153.7682098388672L186.37333333333333,148.72715606689454L186.76,141.14966597557068L186.80833333333334,143.77240147590638L187.05,154.8313144683838L187.14666666666665,152.90334012508393L187.24333333333334,157.9013920068741L187.38833333333332,158.16423525810242L187.48499999999999,147.86678066253663L187.72666666666666,141.2585844039917L187.77499999999998,141.88122560977936L188.1616666666667,134.2039745092392L188.21,151.0461353302002L188.355,175.54406740665436L188.69333333333333,160.13738479614258L188.83833333333334,146.30544068813325L188.88666666666666,158.81301941871644L188.935,145.3203007221222L189.37,161.67492392063141L189.56333333333333,147.86471285820008L189.75666666666666,143.60811653137208L190.095,156.58865275382996L190.14333333333332,152.89437260627747L190.385,150.4388549566269L191.11,152.59517397880555L191.15833333333333,154.92780497074128L191.3516666666667,142.76120295524598L191.44833333333332,147.1377952337265L191.78666666666666,144.90484085083008L191.98000000000002,138.87930121421815L192.415,154.26313247680665L192.4633333333333,168.48146059513093L192.51166666666668,143.95392515659333L192.56,159.4255959033966L192.60833333333335,155.35695877075196L192.80166666666668,158.49725725650788L192.89833333333334,160.88799777030945L192.995,166.0042732000351L193.14000000000001,159.41080477237702L193.285,148.8466667175293L193.33333333333331,166.49575653076172L193.47833333333335,147.60925462245942L194.01000000000002,148.81404604911805L194.3,154.90564992427826L194.59,160.97982516288758L195.025,179.8041874408722L195.07333333333332,141.68885650634766L195.315,160.8925342798233L195.46,155.32771410942078L195.75,160.02439405918122L195.94333333333333,164.1917582988739L196.13666666666666,156.94347109794617L196.5233333333333,160.30588974952698L196.66833333333335,163.43601801395417L196.95833333333334,163.69799616336823L197.00666666666666,144.57454075813294L197.39333333333332,155.61056020259858L197.53833333333336,144.85483374595643L197.58666666666667,153.0334218978882L197.73166666666665,158.37048819065095L198.16666666666666,147.61094262599946L198.795,157.1264506816864L198.84333333333333,141.08984735012055L198.89166666666665,165.34177401065827L198.94000000000003,166.73602273464203L199.085,142.4664142370224L199.61666666666667,138.3372832775116L200.77666666666667,159.52795221805573L200.92166666666665,155.34649314880372L201.01833333333335,163.37227478027344L201.115,155.79590299129487L201.26,176.94504704475403L201.35666666666668,151.6358604669571L201.45333333333332,161.20228292942048L201.59833333333336,154.7736480474472L201.64666666666668,171.06298770904542L202.51666666666668,163.64364244937897L203,149.83452858924866L203.33833333333334,142.16544320583344L203.53166666666667,151.22620310783387L203.57999999999998,162.13389208316804L203.82166666666666,145.3164183139801L203.86999999999998,154.1439594268799L204.01500000000001,149.19979705810547L204.54666666666668,157.78620686531067L204.595,152.97911038398743L205.175,147.44832458496094L205.22333333333333,159.92878975868226L205.32,160.92344584465027L205.36833333333334,146.64388539791108L205.51333333333332,161.516188287735L205.56166666666667,155.00294222831727L205.60999999999999,166.10232510566712L205.94833333333332,153.1121250629425L206.04500000000002,146.28518464565278L206.14166666666665,165.3410355091095L206.72166666666666,155.11367526054383L206.86666666666667,154.7560928106308L206.91500000000002,146.7936746120453L206.96333333333334,156.99537720680237L207.01166666666666,161.92139353752137L207.205,158.2882191181183L207.35,149.93633630275727L208.07500000000002,154.48236193656922L208.17166666666665,163.64028754234315L208.46166666666667,144.67122116088868L208.5583333333333,145.6728191614151L208.75166666666667,153.0191371679306L208.94500000000002,150.10300555229188L208.99333333333334,161.1627203464508L209.71833333333333,155.86089112758637L210.15333333333334,143.09787526130677L210.25,153.9847806930542L210.3466666666667,152.71130862236024L210.49166666666667,161.30265583992005L210.5883333333333,159.99774470329285L210.73333333333335,162.0023544073105L211.16833333333332,146.32440962791443L211.31333333333333,169.60370864868165L211.45833333333331,155.60030558109284L212.52166666666668,155.09227981567383L212.76333333333335,150.89691581726075L213.05333333333334,141.54392030239106L213.19833333333332,143.13840844631196L213.39166666666668,149.30168917179108L213.68166666666667,143.63145318031312L213.82666666666665,162.25865664482117L213.92333333333335,158.74313607215882L214.02,153.8270578622818L214.16500000000002,160.98227276802064L214.26166666666666,150.03603401184083L214.40666666666667,173.30898191928864L215.22833333333332,170.36151673793793L215.27666666666664,151.7380057811737L215.42166666666668,148.00093474388123L215.80833333333334,164.23573079109192L215.85666666666665,158.73959126472474L216.29166666666666,157.8495702981949L216.34,183.7969066143036L216.58166666666668,161.4432243347168L216.63,171.70972516536713L216.6783333333333,153.01732256412507L216.82333333333335,159.27089037895203L217.11333333333334,158.32440569400788L217.35500000000002,155.153111243248L217.5,156.72801854610444L217.88666666666666,156.30601766109467L218.08,154.87610986232758L218.17666666666665,150.1818775177002L218.61166666666668,165.62386050224305L218.85333333333335,158.3552539587021L219.14333333333335,156.34726824760438L219.19166666666666,165.71191098690034L219.43333333333334,154.2156362771988L219.77166666666668,161.6979018688202L220.11,173.36639513969422L220.4,166.87745633125306L220.545,165.75257077217103L220.64166666666668,162.5734482049942L220.69,155.72217943668366L221.02833333333334,157.34082713127137L221.415,168.71881499290467L221.46333333333334,154.65782990455628L221.56,154.98992350101472L221.75333333333336,178.38172795772553L221.94666666666666,157.17464318275452L222.18833333333333,179.7864212036133L222.76833333333335,149.7305686712265L223.05833333333334,168.26147153377534L223.34833333333333,158.26612737178803L223.49333333333334,154.45107057094575L223.78333333333333,169.07928814888L224.36333333333332,161.2380264043808L224.55666666666667,146.69503190517426L224.89499999999998,157.23541131019593L225.04000000000002,176.3038589000702L225.5716666666667,161.44457473754883L226.05499999999998,155.0754630804062L226.10333333333332,164.74339785575867L226.24833333333333,159.78606905937195L226.53833333333333,131.39581182003022L226.78,168.34844591617585L227.505,161.94595398902894L227.5533333333333,154.81403353214264L227.94,146.60493471622468L228.18166666666667,157.81152691841126L228.4716666666667,155.15986325740815L228.56833333333333,182.99267842769623L228.61666666666667,152.28299882411957L228.90666666666667,158.73387315273285L229.39000000000001,166.6328646183014L229.535,151.84529950618744L229.63166666666666,155.70574250221253L229.68,156.17097737789155L229.72833333333335,156.4865285396576L229.92166666666665,152.38501753807068L230.405,158.729927444458L230.45333333333332,160.47431030273438L230.55,160.33184280395508L231.03333333333333,156.23265280723572L231.08166666666665,177.91041626930237L231.90333333333334,147.5398776769638L232.24166666666665,168.0031436920166L232.435,163.9620632171631L232.87,140.48395957946778L233.11166666666665,168.2403503894806L233.35333333333332,158.05831303596497L233.64333333333332,168.38598289489747L234.07833333333335,158.53418233394623L234.27166666666665,167.90410008430482L234.465,158.36008586883545L234.61,160.036674284935L234.9,159.86892893314362L235.14166666666665,162.2810226917267L235.43166666666664,178.8516681432724L235.67333333333332,159.58990194797516L235.81833333333336,154.21945538520814L235.86666666666667,159.11519315242768L236.205,151.1865139245987L236.59166666666667,167.0069473028183L236.97833333333335,158.94221498966218L237.17166666666665,159.3901478290558L237.31666666666666,167.35450723171235L237.46166666666664,169.9735080242157L237.51,173.5881355047226L237.89666666666668,148.5589676141739L237.99333333333334,178.01435508728028L238.525,156.27704730033875L238.91166666666666,156.19157102108002L239.20166666666665,167.62920870780945L239.44333333333333,160.49874415397645L239.63666666666668,171.26881864070893L240.02333333333334,178.09240415096284L241.135,147.79010310173035L241.425,151.4997440814972L241.61833333333334,157.84399988651276L242.34333333333333,174.45650782585145L242.63333333333333,158.44391634464264L242.7783333333333,161.88223185539246L242.875,166.38951780796052L243.21333333333334,147.55736961364747L243.35833333333332,160.29255452156067L243.55166666666668,158.62240161895753L243.745,149.64296128749848L243.79333333333332,164.72734072208405L243.84166666666667,163.2922634124756L243.93833333333333,140.5088787317276L244.22833333333332,159.89329948425294L244.5666666666667,142.06690599918366L244.66333333333333,147.39605977535248L244.76,158.1525669336319L244.95333333333335,149.05247654914857L245.09833333333333,148.87715628147126L245.14666666666668,177.13479974269868L245.24333333333334,173.05782809257508L245.63,168.81866040229798L246.01666666666668,150.71421053409577L246.11333333333334,159.09542241096497L246.79,165.89959588050843L246.935,168.05585160255433L247.07999999999998,153.51264610290528L247.56333333333333,171.41025223731995L247.75666666666666,161.66867830753327L247.90166666666667,166.4747619867325L248.62666666666667,161.93044545650483L248.8683333333333,163.439457321167L248.91666666666666,162.07981266975403L249.10999999999999,167.61637988090516L249.30333333333334,152.6643188238144L249.35166666666666,181.92607119083405L249.4,163.1500069141388L249.49666666666664,146.34787287712098L249.73833333333332,175.9492515563965L249.78666666666666,144.92475929260254L249.835,143.75929834842682L250.27,178.0580321788788L250.65666666666667,173.00322117805482L250.85,162.52664830684662L250.94666666666666,152.84848001003266L251.23666666666665,177.07723882198334L251.62333333333333,153.14449253082276L251.67166666666668,178.4474967956543L251.96166666666667,166.93476405143738L252.10666666666665,166.7459186553955L252.49333333333334,165.06371762752534L252.54166666666666,172.37406005859376L252.78333333333333,156.71185591220856L252.9283333333333,167.36379125118256L252.97666666666666,153.69539358615876L253.12166666666667,167.20695462226868L253.26666666666665,169.22498395442963L253.41166666666666,172.85028805732728L253.99166666666667,148.62904086112977L254.18499999999997,167.0218650341034L254.52333333333334,157.2145011663437L254.81333333333333,168.35424842834473L254.95833333333334,172.60599174499512L255.00666666666666,172.4152895450592L255.05499999999998,154.55927159786225L255.2,156.2468109369278L255.24833333333333,158.61075439453126L255.58666666666664,140.33575286865235L255.68333333333334,163.39658203125L255.78,167.85257377624512L256.07,166.16919114589692L256.31166666666667,178.50853922367097L256.36,175.55143132209778L256.505,176.67667558193207L256.65,153.18186070919037L256.74666666666667,164.24288370609284L256.84333333333336,162.8063926935196L257.23,150.421173119545L257.6166666666667,168.06384851932526L257.71333333333337,160.16310575008393L257.81,160.7002917766571L257.85833333333335,173.68399300575257L257.90666666666664,148.5459699869156L258.245,164.2283668756485L258.29333333333335,152.44660856723786L259.16333333333336,164.1227611541748L259.30833333333334,172.9617173910141L259.84000000000003,164.55512216091157L260.13,173.05251088142396L260.7583333333333,158.82264103889466L261.04833333333335,158.45980467796326L261.09666666666664,173.9447051525116L261.38666666666666,163.7549873828888L261.4833333333333,155.79723229408265L261.6766666666667,174.81784608364106L262.2083333333333,154.15178754329682L262.305,168.87590482234955L262.4016666666667,164.14542260169983L262.59499999999997,163.11934854984284L262.69166666666666,184.06702938079835L262.93333333333334,159.27164998054505L263.12666666666667,170.60108664035798L263.36833333333334,161.90856471061707L264.77,164.11337163448334L264.8666666666667,155.44433405399323L265.3016666666667,149.68419077396393L265.35,178.1064778804779L265.3983333333333,153.73293056488038L265.78499999999997,169.3983208179474" style="fill: none;" fill="none"></path></g></g></g></g></g></g><g transform="translate(40, 177)" clip-path="url(#clip_1)"><clipPath id="clip_1"><rect width="290" height="23"></rect></clipPath><g><g><line x1="0" y1="0" x2="0" y2="5" style="visibility: inherit;" fill="rgb(0, 0, 0)" stroke="rgb(204, 204, 204)" stroke-width="1px"></line><line x1="24.166666666666664" y1="0" x2="24.166666666666664" y2="5" style="visibility: inherit;" fill="rgb(0, 0, 0)" stroke="rgb(204, 204, 204)" stroke-width="1px"></line><line x1="48.33333333333333" y1="0" x2="48.33333333333333" y2="5" style="visibility: inherit;" fill="rgb(0, 0, 0)" stroke="rgb(204, 204, 204)" stroke-width="1px"></line><line x1="72.5" y1="0" x2="72.5" y2="5" style="visibility: inherit;" fill="rgb(0, 0, 0)" stroke="rgb(204, 204, 204)" stroke-width="1px"></line><line x1="96.66666666666666" y1="0" x2="96.66666666666666" y2="5" style="visibility: inherit;" fill="rgb(0, 0, 0)" stroke="rgb(204, 204, 204)" stroke-width="1px"></line><line x1="120.83333333333334" y1="0" x2="120.83333333333334" y2="5" style="visibility: inherit;" fill="rgb(0, 0, 0)" stroke="rgb(204, 204, 204)" stroke-width="1px"></line><line x1="145" y1="0" x2="145" y2="5" style="visibility: inherit;" fill="rgb(0, 0, 0)" stroke="rgb(204, 204, 204)" stroke-width="1px"></line><line x1="169.16666666666669" y1="0" x2="169.16666666666669" y2="5" style="visibility: inherit;" fill="rgb(0, 0, 0)" stroke="rgb(204, 204, 204)" stroke-width="1px"></line><line x1="193.33333333333331" y1="0" x2="193.33333333333331" y2="5" style="visibility: inherit;" fill="rgb(0, 0, 0)" stroke="rgb(204, 204, 204)" stroke-width="1px"></line><line x1="217.5" y1="0" x2="217.5" y2="5" style="visibility: inherit;" fill="rgb(0, 0, 0)" stroke="rgb(204, 204, 204)" stroke-width="1px"></line><line x1="241.66666666666669" y1="0" x2="241.66666666666669" y2="5" style="visibility: inherit;" fill="rgb(0, 0, 0)" stroke="rgb(204, 204, 204)" stroke-width="1px"></line><line x1="265.8333333333333" y1="0" x2="265.8333333333333" y2="5" style="visibility: inherit;" fill="rgb(0, 0, 0)" stroke="rgb(204, 204, 204)" stroke-width="1px"></line><line x1="290" y1="0" x2="290" y2="5" style="visibility: inherit;" fill="rgb(0, 0, 0)" stroke="rgb(204, 204, 204)" stroke-width="1px"></line></g><g transform="translate(0, 8)"><text x="0" y="0" dx="0em" dy="0.95em" style="text-anchor: middle; visibility: hidden; font-family: Roboto, sans-serif; font-size: 12px; font-weight: 200;" fill="rgb(33, 33, 33)" stroke="none" stroke-width="1px">-500</text><text x="24.166666666666664" y="0" dx="0em" dy="0.95em" style="text-anchor: middle; visibility: inherit; font-family: Roboto, sans-serif; font-size: 12px; font-weight: 200;" fill="rgb(33, 33, 33)" stroke="none" stroke-width="1px">0</text><text x="48.33333333333333" y="0" dx="0em" dy="0.95em" style="text-anchor: middle; visibility: inherit; font-family: Roboto, sans-serif; font-size: 12px; font-weight: 200;" fill="rgb(33, 33, 33)" stroke="none" stroke-width="1px">500</text><text x="72.5" y="0" dx="0em" dy="0.95em" style="text-anchor: middle; visibility: inherit; font-family: Roboto, sans-serif; font-size: 12px; font-weight: 200;" fill="rgb(33, 33, 33)" stroke="none" stroke-width="1px">1k</text><text x="96.66666666666666" y="0" dx="0em" dy="0.95em" style="text-anchor: middle; visibility: inherit; font-family: Roboto, sans-serif; font-size: 12px; font-weight: 200;" fill="rgb(33, 33, 33)" stroke="none" stroke-width="1px">1.5k</text><text x="120.83333333333334" y="0" dx="0em" dy="0.95em" style="text-anchor: middle; visibility: inherit; font-family: Roboto, sans-serif; font-size: 12px; font-weight: 200;" fill="rgb(33, 33, 33)" stroke="none" stroke-width="1px">2k</text><text x="145" y="0" dx="0em" dy="0.95em" style="text-anchor: middle; visibility: inherit; font-family: Roboto, sans-serif; font-size: 12px; font-weight: 200;" fill="rgb(33, 33, 33)" stroke="none" stroke-width="1px">2.5k</text><text x="169.16666666666669" y="0" dx="0em" dy="0.95em" style="text-anchor: middle; visibility: inherit; font-family: Roboto, sans-serif; font-size: 12px; font-weight: 200;" fill="rgb(33, 33, 33)" stroke="none" stroke-width="1px">3k</text><text x="193.33333333333331" y="0" dx="0em" dy="0.95em" style="text-anchor: middle; visibility: inherit; font-family: Roboto, sans-serif; font-size: 12px; font-weight: 200;" fill="rgb(33, 33, 33)" stroke="none" stroke-width="1px">3.5k</text><text x="217.5" y="0" dx="0em" dy="0.95em" style="text-anchor: middle; visibility: inherit; font-family: Roboto, sans-serif; font-size: 12px; font-weight: 200;" fill="rgb(33, 33, 33)" stroke="none" stroke-width="1px">4k</text><text x="241.66666666666669" y="0" dx="0em" dy="0.95em" style="text-anchor: middle; visibility: inherit; font-family: Roboto, sans-serif; font-size: 12px; font-weight: 200;" fill="rgb(33, 33, 33)" stroke="none" stroke-width="1px">4.5k</text><text x="265.8333333333333" y="0" dx="0em" dy="0.95em" style="text-anchor: middle; visibility: inherit; font-family: Roboto, sans-serif; font-size: 12px; font-weight: 200;" fill="rgb(33, 33, 33)" stroke="none" stroke-width="1px">5k</text><text x="290" y="0" dx="0em" dy="0.95em" style="text-anchor: middle; visibility: hidden; font-family: Roboto, sans-serif; font-size: 12px; font-weight: 200;" fill="rgb(33, 33, 33)" stroke="none" stroke-width="1px">5.5k</text></g><line x1="0" y1="0" x2="290" y2="0" fill="rgb(0, 0, 0)" stroke="rgb(204, 204, 204)" stroke-width="1px"></line></g></g></g></g></svg>